<svg width="17" height="17" viewBox="0 0 17 17" fill="none" xmlns="http://www.w3.org/2000/svg">
<g opacity="0.7">
<path fill-rule="evenodd" clip-rule="evenodd" d="M16.3536 0.646447C16.5488 0.841709 16.5488 1.15829 16.3536 1.35355L1.35355 16.3536C1.15829 16.5488 0.841709 16.5488 0.646447 16.3536C0.451184 16.1583 0.451184 15.8417 0.646447 15.6464L15.6464 0.646447C15.8417 0.451184 16.1583 0.451184 16.3536 0.646447Z" fill="white"/>
<path fill-rule="evenodd" clip-rule="evenodd" d="M0.646446 0.646449C0.841708 0.451187 1.15829 0.451187 1.35355 0.646449L16.3536 15.6464C16.5488 15.8417 16.5488 16.1583 16.3536 16.3536C16.1583 16.5488 15.8417 16.5488 15.6464 16.3536L0.646446 1.35356C0.451184 1.15829 0.451184 0.841711 0.646446 0.646449Z" fill="white"/>
</g>
</svg>
