<svg width="206" height="135" viewBox="0 0 206 135" fill="none" xmlns="http://www.w3.org/2000/svg">
<g clip-path="url(#clip0)">
<path d="M39.5106 8.94575V69.6686C48.9441 74.353 59.5874 76.9879 70.8466 76.9879C109.67 76.9879 141.148 45.6723 141.148 7.04816C141.148 6.59274 141.137 6.14274 141.132 5.69274H42.7804C40.9766 5.69274 39.5106 7.15117 39.5106 8.94575Z" fill="white"/>
<g opacity="0.3">
<path opacity="0.3" d="M114.172 103.283H89.1032V130.392H114.172V103.283Z" fill="#E4DBCB"/>
</g>
<path d="M114.172 103.283H89.1032V112.771H114.172V103.283Z" fill="#E4DBCB"/>
<path d="M198.098 130.12H0.272461V130.663H198.098V130.12Z" fill="#C1B9AE"/>
<path d="M164.854 103.554H39.5106C36.3552 103.554 33.7883 101.001 33.7883 97.8614V5.69277C33.7883 2.55361 36.3552 0 39.5106 0H164.854C168.01 0 170.577 2.55361 170.577 5.69277V97.8614C170.577 101.001 168.01 103.554 164.854 103.554ZM39.5106 0.542169C36.6549 0.542169 34.3333 2.85181 34.3333 5.69277V97.8614C34.3333 100.702 36.6549 103.012 39.5106 103.012H164.854C167.71 103.012 170.032 100.702 170.032 97.8614V5.69277C170.032 2.85181 167.71 0.542169 164.854 0.542169H39.5106Z" fill="#C1B9AE"/>
<path d="M161.585 81.3253H42.7804C40.8294 81.3253 39.2381 79.7421 39.2381 77.8012V8.94576C39.2381 7.0048 40.8294 5.42167 42.7804 5.42167H161.585C163.536 5.42167 165.127 7.0048 165.127 8.94576V77.8012C165.127 79.7421 163.536 81.3253 161.585 81.3253ZM42.7804 5.96384C41.1291 5.96384 39.783 7.30299 39.783 8.94576V77.8012C39.783 79.444 41.1291 80.7831 42.7804 80.7831H161.585C163.236 80.7831 164.582 79.444 164.582 77.8012V8.94576C164.582 7.30299 163.236 5.96384 161.585 5.96384H42.7804Z" fill="#C1B9AE"/>
<path d="M114.444 130.663H88.8307V103.012H114.444V130.663ZM89.3757 130.12H113.899V103.554H89.3757V130.12Z" fill="#C1B9AE"/>
<g opacity="0.3">
<path opacity="0.3" d="M105.452 50.6115V43.1837C105.452 42.2404 104.684 41.4759 103.736 41.4759H102.831C102.112 41.4759 101.463 41.0313 101.223 40.3536C100.88 39.3994 100.471 38.4777 100.003 37.594C99.6538 36.9325 99.7791 36.1247 100.308 35.5988L100.678 35.2301C101.349 34.5633 101.349 33.4843 100.678 32.8175L95.3975 27.5639C94.7272 26.897 93.6427 26.897 92.9724 27.5639L92.4383 28.0952C91.9206 28.6102 91.1304 28.7404 90.4764 28.4205C89.5445 27.9705 88.5799 27.5856 87.5826 27.2711C86.8687 27.0488 86.3782 26.3928 86.3782 25.6446V25.2922C86.3782 24.3488 85.6098 23.5843 84.6616 23.5843H77.1954C76.2472 23.5843 75.4788 24.3488 75.4788 25.2922V25.8235C75.4788 26.5554 75.0101 27.2006 74.318 27.4337C73.2771 27.7862 72.2689 28.2199 71.3097 28.7241C70.6449 29.0711 69.8274 28.9518 69.2988 28.4259L69.2007 28.3283C68.5304 27.6615 67.4459 27.6615 66.7755 28.3283L61.4947 33.5819C60.8244 34.2488 60.8244 35.3277 61.4947 35.9946L61.7563 36.2548C62.2741 36.7699 62.4049 37.5506 62.0833 38.2012C61.5928 39.2042 61.1787 40.256 60.8517 41.3404C60.6337 42.0615 59.9688 42.5602 59.2113 42.5602C58.2631 42.5602 57.4946 43.3247 57.4946 44.2681V51.6958C57.4946 52.6392 58.2631 53.4036 59.2113 53.4036H59.571C60.2958 53.4036 60.9389 53.8536 61.1841 54.5368C61.5656 55.5994 62.0288 56.6295 62.5683 57.6054C62.9389 58.2723 62.8245 59.0964 62.285 59.6331L62.2686 59.6494C61.5983 60.3163 61.5983 61.3952 62.2686 62.0621L67.5494 67.3157C68.2197 67.9825 69.3042 67.9825 69.9745 67.3157L70.3288 66.9633C70.8356 66.459 71.6095 66.3235 72.258 66.6217C73.2389 67.0771 74.2635 67.4566 75.3207 67.7548C76.0564 67.9663 76.5687 68.6277 76.5687 69.3922V69.5819C76.5687 70.5253 77.3371 71.2898 78.2854 71.2898H85.7515C86.6998 71.2898 87.4682 70.5253 87.4682 69.5819V68.8608C87.4682 68.1506 87.9151 67.5108 88.5854 67.2669C89.5663 66.9036 90.5091 66.4753 91.4138 65.9765C92.0841 65.6078 92.9179 65.7217 93.4574 66.2584L93.7463 66.5458C94.4166 67.2127 95.5011 67.2127 96.1714 66.5458L101.452 61.2922C102.123 60.6253 102.123 59.5464 101.452 58.8795L100.82 58.2506C100.313 57.7464 100.172 56.9874 100.477 56.3422C100.902 55.4368 101.261 54.4934 101.55 53.5229C101.768 52.8018 102.433 52.3139 103.185 52.3139H103.73C104.684 52.3193 105.452 51.5548 105.452 50.6115Z" fill="#E4DBCB"/>
</g>
<path d="M81.201 64.247C90.5314 64.247 98.0952 56.7221 98.0952 47.4397C98.0952 38.1574 90.5314 30.6325 81.201 30.6325C71.8706 30.6325 64.3069 38.1574 64.3069 47.4397C64.3069 56.7221 71.8706 64.247 81.201 64.247Z" fill="#E4DBCB"/>
<path d="M81.201 62.6205C89.6285 62.6205 96.4603 55.8239 96.4603 47.4398C96.4603 39.0557 89.6285 32.259 81.201 32.259C72.7736 32.259 65.9417 39.0557 65.9417 47.4398C65.9417 55.8239 72.7736 62.6205 81.201 62.6205Z" fill="white"/>
<path d="M81.201 62.8916C72.6395 62.8916 65.6693 55.9573 65.6693 47.4398C65.6693 38.9223 72.6395 31.988 81.201 31.988C89.7626 31.988 96.7328 38.9223 96.7328 47.4398C96.7328 55.9573 89.7626 62.8916 81.201 62.8916ZM81.201 32.5301C72.9392 32.5301 66.2143 39.2205 66.2143 47.4398C66.2143 55.6591 72.9392 62.3494 81.201 62.3494C89.4628 62.3494 96.1878 55.6591 96.1878 47.4398C96.1878 39.2205 89.4628 32.5301 81.201 32.5301Z" fill="#C1B9AE"/>
<path d="M85.7515 71.5663H78.2854C77.19 71.5663 76.2962 70.6772 76.2962 69.5874V69.3977C76.2962 68.7633 75.8657 68.194 75.2444 68.0205C74.1817 67.7169 73.1408 67.332 72.1435 66.8711C71.5985 66.6217 70.9446 66.7356 70.5195 67.1585L70.1653 67.5163C69.3914 68.2862 68.1271 68.2862 67.3532 67.5163L62.0724 62.2627C61.2985 61.4928 61.2985 60.235 62.0724 59.4651C62.5465 58.9934 62.6392 58.3103 62.3285 57.741C61.7781 56.7489 61.3094 55.7025 60.9225 54.6344C60.7209 54.0651 60.1759 53.6856 59.5655 53.6856H59.2058C58.1104 53.6856 57.2167 52.7964 57.2167 51.7067V44.279C57.2167 43.1892 58.1104 42.3001 59.2058 42.3001C59.8435 42.3001 60.3993 41.888 60.5846 41.2754C60.9116 40.1856 61.3312 39.1175 61.8326 38.0983C62.0996 37.5507 61.9907 36.8892 61.5547 36.4609L61.2931 36.2007C60.5192 35.4308 60.5192 34.173 61.2931 33.4031L66.5739 28.1495C67.3259 27.4013 68.6339 27.4013 69.3859 28.1495L69.484 28.2416C69.9309 28.6862 70.6121 28.7892 71.1789 28.491C72.1544 27.9814 73.179 27.5422 74.2253 27.1844C74.8084 26.9838 75.2008 26.4416 75.2008 25.829V25.2977C75.2008 24.2079 76.0946 23.3187 77.19 23.3187H84.6561C85.7515 23.3187 86.6453 24.2079 86.6453 25.2977V25.6501C86.6453 26.279 87.054 26.8266 87.6589 27.0163C88.6617 27.3308 89.6481 27.7211 90.5909 28.1766C91.1467 28.4422 91.8116 28.3338 92.2421 27.9055L92.7762 27.3742C93.5501 26.6043 94.8144 26.6043 95.5883 27.3742L100.869 32.6278C101.643 33.3977 101.643 34.6555 100.869 35.4254L100.498 35.794C100.052 36.2386 99.9481 36.9109 100.242 37.4693C100.722 38.3693 101.136 39.3127 101.479 40.2669C101.681 40.8308 102.226 41.2103 102.831 41.2103H103.736C104.831 41.2103 105.725 42.0995 105.725 43.1892V50.6169C105.725 51.7067 104.831 52.5958 103.736 52.5958H103.191C102.553 52.5958 101.997 53.0025 101.817 53.6097C101.523 54.5856 101.158 55.5452 100.727 56.4615C100.477 56.9983 100.591 57.6434 101.016 58.0663L101.648 58.6952C102.422 59.4651 102.422 60.723 101.648 61.4928L96.3676 66.7464C95.5937 67.5163 94.3294 67.5163 93.5555 66.7464L93.2667 66.4591C92.8089 66.0037 92.1168 65.9115 91.5446 66.226C90.6236 66.7302 89.659 67.1693 88.6835 67.5326C88.1221 67.7386 87.7407 68.2808 87.7407 68.8772V69.5983C87.7407 70.6772 86.8469 71.5663 85.7515 71.5663ZM71.5386 66.1934C71.822 66.1934 72.1054 66.2531 72.3724 66.3778C73.3425 66.8278 74.3616 67.2019 75.397 67.5001C76.2472 67.744 76.8412 68.5248 76.8412 69.3977V69.5874C76.8412 70.379 77.4897 71.0242 78.2854 71.0242H85.7515C86.5472 71.0242 87.1957 70.379 87.1957 69.5874V68.8663C87.1957 68.0476 87.7189 67.3049 88.4927 67.0175C89.4464 66.6651 90.3892 66.2368 91.283 65.7434C92.0732 65.3151 93.0215 65.4452 93.6536 66.0687L93.9425 66.3561C94.5038 66.9145 95.4193 66.9145 95.9861 66.3561L101.267 61.1025C101.828 60.544 101.828 59.6332 101.267 59.0693L100.635 58.4404C100.046 57.8549 99.8881 56.9657 100.237 56.223C100.657 55.3284 101.011 54.3904 101.3 53.4416C101.55 52.6013 102.313 52.0374 103.196 52.0374H103.741C104.537 52.0374 105.185 51.3922 105.185 50.6007V43.173C105.185 42.3814 104.537 41.7362 103.741 41.7362H102.836C102.003 41.7362 101.251 41.2157 100.973 40.435C100.64 39.5079 100.231 38.5862 99.7682 37.7079C99.3595 36.938 99.5012 36.0109 100.122 35.3983L100.493 35.0296C101.054 34.4711 101.054 33.5603 100.493 32.9965L95.2122 27.7428C94.6509 27.1844 93.7354 27.1844 93.1686 27.7428L92.6345 28.2742C92.035 28.8705 91.1195 29.0169 90.3565 28.6483C89.4355 28.2037 88.4764 27.8242 87.4954 27.5151C86.6616 27.2549 86.1003 26.4958 86.1003 25.6284V25.276C86.1003 24.4844 85.4518 23.8392 84.6561 23.8392H77.19C76.3943 23.8392 75.7458 24.4844 75.7458 25.276V25.8073C75.7458 26.6531 75.2063 27.4013 74.3997 27.6778C73.3752 28.0248 72.3779 28.4531 71.4296 28.9464C70.6557 29.3531 69.7184 29.2121 69.0971 28.5995L68.999 28.5073C68.454 27.9651 67.5003 27.9651 66.9554 28.5073L61.6746 33.7609C61.1132 34.3193 61.1132 35.2302 61.6746 35.794L61.9362 36.0543C62.5356 36.6507 62.6882 37.5561 62.3176 38.3151C61.8326 39.3127 61.4239 40.3537 61.1023 41.4109C60.8462 42.2567 60.0832 42.8205 59.2004 42.8205C58.4047 42.8205 57.7562 43.4657 57.7562 44.2573V51.685C57.7562 52.4766 58.4047 53.1217 59.2004 53.1217H59.5601C60.3993 53.1217 61.1459 53.6477 61.4293 54.4338C61.7999 55.4748 62.2631 56.494 62.7972 57.4645C63.2223 58.2344 63.0861 59.1995 62.4648 59.8175C61.8871 60.3922 61.8871 61.3031 62.4484 61.8669L67.7292 67.1205C68.2905 67.679 69.2061 67.679 69.7729 67.1205L70.1271 66.7627C70.514 66.394 71.0209 66.1934 71.5386 66.1934Z" fill="#C1B9AE"/>
<g opacity="0.3">
<path opacity="0.3" d="M127.251 36.9542V33.5765C127.251 33.1482 126.903 32.8012 126.472 32.8012H126.063C125.736 32.8012 125.442 32.6006 125.333 32.2915C125.18 31.8578 124.99 31.4403 124.777 31.0391C124.619 30.7409 124.674 30.3723 124.913 30.1337L125.082 29.9656C125.387 29.662 125.387 29.1686 125.082 28.8704L122.684 26.4849C122.379 26.1813 121.883 26.1813 121.584 26.4849L121.344 26.7235C121.109 26.9566 120.75 27.0162 120.45 26.8698C120.025 26.6638 119.589 26.4903 119.131 26.3494C118.804 26.2463 118.581 25.9482 118.581 25.612V25.4548C118.581 25.0265 118.232 24.6795 117.801 24.6795H114.406C113.976 24.6795 113.627 25.0265 113.627 25.4548V25.6988C113.627 26.0295 113.414 26.3222 113.098 26.4307C112.624 26.5933 112.166 26.7885 111.73 27.0162C111.425 27.1735 111.06 27.1192 110.815 26.8807L110.771 26.8373C110.466 26.5337 109.97 26.5337 109.67 26.8373L107.273 29.2229C106.967 29.5265 106.967 30.0198 107.273 30.318L107.392 30.4373C107.627 30.6704 107.687 31.0283 107.54 31.321C107.316 31.7765 107.131 32.2536 106.978 32.7469C106.88 33.0777 106.575 33.3 106.232 33.3C105.801 33.3 105.452 33.6469 105.452 34.0753V37.453C105.452 37.8813 105.801 38.2283 106.232 38.2283H106.395C106.722 38.2283 107.016 38.4343 107.125 38.7433C107.3 39.2259 107.512 39.6921 107.758 40.1367C107.927 40.4403 107.872 40.8144 107.627 41.0584L107.621 41.0638C107.316 41.3674 107.316 41.8608 107.621 42.159L110.019 44.5445C110.324 44.8482 110.82 44.8482 111.12 44.5445L111.284 44.3819C111.512 44.1542 111.867 44.0891 112.161 44.2301C112.608 44.4361 113.071 44.6096 113.551 44.7451C113.883 44.8427 114.117 45.1409 114.117 45.4879V45.5747C114.117 46.003 114.466 46.35 114.897 46.35H118.292C118.722 46.35 119.071 46.003 119.071 45.5747V45.2494C119.071 44.9241 119.273 44.6367 119.578 44.5229C120.025 44.3602 120.45 44.1596 120.864 43.9373C121.169 43.7692 121.545 43.818 121.796 44.0674L121.927 44.1975C122.232 44.5012 122.728 44.5012 123.028 44.1975L125.426 41.812C125.731 41.5084 125.731 41.015 125.426 40.7168L125.137 40.4295C124.908 40.2018 124.842 39.8548 124.979 39.562C125.169 39.15 125.333 38.7216 125.469 38.2825C125.567 37.9572 125.873 37.7349 126.216 37.7349H126.461C126.903 37.7295 127.251 37.3825 127.251 36.9542Z" fill="#E4DBCB"/>
</g>
<path d="M116.226 43.1512C120.467 43.1512 123.905 39.731 123.905 35.512C123.905 31.293 120.467 27.8728 116.226 27.8728C111.986 27.8728 108.548 31.293 108.548 35.512C108.548 39.731 111.986 43.1512 116.226 43.1512Z" fill="#E4DBCB"/>
<path d="M116.226 42.4138C120.058 42.4138 123.164 39.3238 123.164 35.512C123.164 31.7002 120.058 28.6102 116.226 28.6102C112.395 28.6102 109.289 31.7002 109.289 35.512C109.289 39.3238 112.395 42.4138 116.226 42.4138Z" fill="white"/>
<path d="M116.226 42.6849C112.254 42.6849 109.016 39.4698 109.016 35.512C109.016 31.5542 112.248 28.3391 116.226 28.3391C120.199 28.3391 123.436 31.5542 123.436 35.512C123.436 39.4698 120.205 42.6849 116.226 42.6849ZM116.226 28.8813C112.553 28.8813 109.561 31.8524 109.561 35.512C109.561 39.1717 112.548 42.1427 116.226 42.1427C119.9 42.1427 122.891 39.1717 122.891 35.512C122.891 31.8524 119.9 28.8813 116.226 28.8813Z" fill="#C1B9AE"/>
<path d="M118.297 46.6264H114.902C114.319 46.6264 113.85 46.1548 113.85 45.5801V45.4933C113.85 45.271 113.698 45.0704 113.48 45.0108C112.989 44.8698 112.51 44.6909 112.047 44.4795C111.856 44.3927 111.627 44.4307 111.474 44.577L111.311 44.7397C110.913 45.1355 110.221 45.1355 109.823 44.7397L107.425 42.3541C107.224 42.159 107.115 41.8933 107.115 41.6114C107.115 41.3294 107.224 41.0692 107.425 40.8686C107.594 40.7005 107.627 40.462 107.518 40.2614C107.267 39.806 107.049 39.3234 106.869 38.8246C106.798 38.624 106.608 38.4885 106.395 38.4885H106.232C105.649 38.4885 105.18 38.0168 105.18 37.4421V34.0644C105.18 33.4897 105.654 33.018 106.232 33.018C106.455 33.018 106.651 32.8716 106.717 32.6602C106.869 32.156 107.06 31.6626 107.294 31.1909C107.387 30.9957 107.349 30.768 107.196 30.6162L107.076 30.4969C106.668 30.0903 106.668 29.4234 107.076 29.0168L109.474 26.6312C109.883 26.2246 110.553 26.2246 110.962 26.6312L111.006 26.6746C111.164 26.8319 111.403 26.8644 111.6 26.7614C112.052 26.5282 112.521 26.3222 113.006 26.1596C113.213 26.0891 113.349 25.8993 113.349 25.6825V25.4385C113.349 24.8638 113.823 24.3921 114.401 24.3921H117.796C118.379 24.3921 118.848 24.8638 118.848 25.4385V25.5957C118.848 25.818 118.99 26.0078 119.208 26.0782C119.671 26.2246 120.123 26.4035 120.559 26.615C120.755 26.7126 120.99 26.6692 121.142 26.5174L121.382 26.2788C121.78 25.8831 122.472 25.8831 122.87 26.2788L125.268 28.6644C125.469 28.8596 125.578 29.1252 125.578 29.4072C125.578 29.6891 125.469 29.9493 125.268 30.1499L125.099 30.318C124.941 30.4752 124.902 30.7084 125.011 30.9035C125.235 31.321 125.426 31.7547 125.578 32.1939C125.649 32.3891 125.84 32.5246 126.052 32.5246H126.461C127.044 32.5246 127.513 32.9963 127.513 33.571V36.9487C127.513 37.5234 127.039 37.9951 126.461 37.9951H126.216C125.992 37.9951 125.796 38.1361 125.731 38.3529C125.595 38.8029 125.426 39.2475 125.229 39.6704C125.142 39.8602 125.18 40.0825 125.333 40.2343L125.622 40.5216C126.031 40.9282 126.031 41.5951 125.622 42.0017L123.224 44.3873C122.815 44.7939 122.145 44.7939 121.736 44.3873L121.605 44.2572C121.447 44.0999 121.202 44.0674 121 44.1758C120.575 44.409 120.134 44.6096 119.682 44.7776C119.485 44.8481 119.349 45.0379 119.349 45.2493V45.5746C119.349 46.1547 118.875 46.6264 118.297 46.6264ZM111.834 43.8885C111.981 43.8885 112.134 43.921 112.275 43.9861C112.711 44.1867 113.164 44.3548 113.627 44.4849C114.079 44.615 114.39 45.027 114.39 45.4879V45.5746C114.39 45.8511 114.619 46.0788 114.897 46.0788H118.292C118.57 46.0788 118.799 45.8511 118.799 45.5746V45.2493C118.799 44.8156 119.077 44.4198 119.485 44.268C119.911 44.1108 120.33 43.921 120.733 43.6987C121.142 43.4764 121.66 43.5469 121.987 43.8722L122.118 44.0023C122.314 44.1975 122.635 44.1975 122.837 44.0023L125.235 41.6168C125.431 41.4216 125.431 41.1017 125.235 40.9011L124.946 40.6138C124.635 40.3048 124.548 39.8331 124.734 39.4373C124.919 39.0361 125.077 38.6186 125.208 38.1957C125.344 37.7511 125.747 37.4529 126.21 37.4529H126.456C126.734 37.4529 126.962 37.2252 126.962 36.9487V33.571C126.962 33.2945 126.734 33.0668 126.456 33.0668H126.047C125.605 33.0668 125.208 32.7903 125.061 32.3782C124.913 31.9608 124.728 31.5541 124.521 31.1584C124.303 30.7517 124.379 30.2584 124.706 29.9331L124.875 29.765C124.973 29.6674 125.022 29.5427 125.022 29.4072C125.022 29.2716 124.968 29.1469 124.875 29.0493L122.477 26.6638C122.287 26.474 121.949 26.474 121.758 26.6638L121.529 26.9078C121.213 27.2222 120.728 27.3035 120.325 27.1084C119.916 26.9078 119.485 26.7397 119.044 26.6041C118.603 26.4632 118.303 26.062 118.303 25.6065V25.4493C118.303 25.1728 118.074 24.9451 117.796 24.9451H114.401C114.123 24.9451 113.894 25.1728 113.894 25.4493V25.6933C113.894 26.1379 113.605 26.5391 113.18 26.68C112.722 26.8373 112.275 27.027 111.85 27.2493C111.442 27.4662 110.946 27.3903 110.619 27.065L110.575 27.0216C110.373 26.8264 110.052 26.8264 109.856 27.0216L107.458 29.4072C107.262 29.6023 107.262 29.9222 107.458 30.1228L107.578 30.2421C107.894 30.5566 107.976 31.0391 107.779 31.4403C107.561 31.8849 107.382 32.3511 107.234 32.8282C107.098 33.2728 106.695 33.5764 106.226 33.5764C105.948 33.5764 105.719 33.8041 105.719 34.0806V37.4584C105.719 37.7349 105.948 37.9626 106.226 37.9626H106.39C106.831 37.9626 107.229 38.2391 107.376 38.6566C107.545 39.1228 107.752 39.5837 107.986 40.012C108.21 40.4186 108.139 40.9282 107.812 41.259C107.709 41.362 107.654 41.4867 107.654 41.6222C107.654 41.7578 107.709 41.8825 107.801 41.9801L110.199 44.3656C110.39 44.5554 110.728 44.5554 110.918 44.3656L111.082 44.2029C111.294 43.9969 111.562 43.8885 111.834 43.8885Z" fill="#C1B9AE"/>
<path d="M52.045 47.1686H51.5C51.5 39.3831 54.5192 32.0367 59.9961 26.4795C65.4677 20.9331 72.7758 17.7885 80.5743 17.6259L80.5852 18.168C64.8464 18.4933 52.045 31.5054 52.045 47.1686Z" fill="#C1B9AE"/>
<path d="M79.5389 18.8946L80.4163 17.9295L79.4463 17.0566L80.231 17.0187L81.2011 17.8916L80.3237 18.8566L79.5389 18.8946Z" fill="#C1B9AE"/>
<path d="M129.693 34.9049C129.366 27.797 123.507 22.229 116.352 22.229V21.6868C123.802 21.6868 129.9 27.4826 130.232 34.8778L129.693 34.9049Z" fill="#C1B9AE"/>
<path d="M128.968 33.8586L129.938 34.7314L130.815 33.7664L130.854 34.5471L129.976 35.5122L129.006 34.6393L128.968 33.8586Z" fill="#C1B9AE"/>
<g opacity="0.3">
<path opacity="0.3" d="M131.802 37.5018C130.854 37.5344 130.407 38.6892 131.077 39.3561L136.5 44.7506C136.925 45.1735 136.925 45.8621 136.5 46.285L128.02 54.7211C127.595 55.144 126.903 55.144 126.477 54.7211L121.055 49.3265C120.379 48.6542 119.224 49.1097 119.191 50.0585C119.06 53.7994 120.548 57.5892 123.649 60.3C127.943 64.0518 134.227 64.491 139.001 61.6446C139.437 61.3844 139.998 61.4603 140.347 61.8289L159.928 82.7946C161.138 84.0904 163.192 84.1283 164.451 82.8759C165.694 81.6398 165.677 79.6229 164.408 78.4085L143.644 58.5488C143.274 58.2018 143.192 57.6434 143.453 57.2097C146.489 52.2055 145.84 45.6127 141.497 41.297C138.843 38.6458 135.301 37.3826 131.802 37.5018Z" fill="#E4DBCB"/>
</g>
<path d="M131.802 37.5018C130.854 37.5344 130.407 38.6892 131.077 39.3561L136.499 44.7506C136.925 45.1735 136.925 45.8621 136.499 46.285L131.873 50.888L164.233 83.082C164.309 83.0169 164.386 82.9518 164.457 82.8814C165.699 81.6452 165.683 79.6284 164.413 78.4139L143.65 58.5542C143.279 58.2073 143.197 57.6488 143.459 57.2151C146.494 52.2109 145.846 45.6181 141.502 41.3024C138.843 38.6458 135.301 37.3826 131.802 37.5018Z" fill="#E4DBCB"/>
<path d="M160.587 81.3633C159.95 80.7289 159.95 79.6988 160.587 79.0645C161.225 78.4301 162.26 78.4301 162.898 79.0645C163.536 79.6988 163.536 80.7289 162.898 81.3633C162.26 82.003 161.225 82.003 160.587 81.3633Z" fill="white"/>
<path d="M161.743 82.1116C161.252 82.1116 160.767 81.9272 160.397 81.5585C159.65 80.8158 159.65 79.6176 160.397 78.8748C161.116 78.1591 162.375 78.1591 163.094 78.8748C163.841 79.6176 163.841 80.8212 163.094 81.5585C162.718 81.9272 162.233 82.1116 161.743 82.1116ZM161.743 78.8585C161.378 78.8585 161.034 78.9995 160.778 79.2543C160.249 79.7802 160.249 80.6423 160.778 81.1736C161.307 81.6995 162.173 81.7049 162.707 81.1736C163.236 80.6477 163.236 79.7856 162.707 79.2543C162.446 78.9995 162.108 78.8585 161.743 78.8585Z" fill="#C1B9AE"/>
<path d="M162.239 84.0687C162.217 84.0687 162.195 84.0687 162.173 84.0687C161.236 84.0524 160.369 83.6675 159.732 82.9844L140.151 62.0187C139.889 61.7422 139.475 61.6826 139.143 61.8777C134.211 64.8217 127.769 64.2579 123.469 60.5061C120.439 57.8603 118.782 54.0488 118.919 50.053C118.941 49.5054 119.267 49.0338 119.785 48.8332C120.297 48.6326 120.859 48.7464 121.251 49.1368L126.674 54.5314C126.99 54.8458 127.513 54.8458 127.829 54.5314L136.309 46.0952C136.461 45.9434 136.549 45.7374 136.549 45.5205C136.549 45.3036 136.461 45.0976 136.309 44.9458L130.886 39.5512C130.494 39.1609 130.38 38.6024 130.581 38.0928C130.783 37.5832 131.246 37.2579 131.796 37.2362C135.491 37.1006 139.099 38.5211 141.704 41.1127C146.053 45.4392 146.876 52.1241 143.699 57.3615C143.502 57.6814 143.562 58.1042 143.84 58.3645L164.604 78.2241C165.269 78.8639 165.645 79.7205 165.65 80.6422C165.661 81.5639 165.301 82.4259 164.647 83.0765C164.004 83.7163 163.149 84.0687 162.239 84.0687ZM139.562 61.2163C139.927 61.2163 140.282 61.3627 140.549 61.6446L160.13 82.6103C160.664 83.185 161.394 83.5103 162.179 83.5211C162.985 83.5428 163.705 83.2392 164.261 82.6862C164.811 82.1386 165.111 81.4121 165.1 80.6422C165.094 79.8669 164.778 79.1458 164.217 78.6091L143.453 58.7494C142.996 58.3211 142.892 57.6109 143.219 57.0741C146.265 52.0536 145.481 45.6452 141.306 41.4922C138.805 39.0036 135.333 37.6482 131.802 37.7729C131.469 37.7838 131.197 37.9789 131.077 38.288C130.979 38.532 130.979 38.8898 131.257 39.1663L136.679 44.5609C137.208 45.0868 137.208 45.9488 136.679 46.4801L128.2 54.9163C127.666 55.4476 126.804 55.4422 126.27 54.9163L120.848 49.5217C120.57 49.2452 120.21 49.2452 119.971 49.3428C119.725 49.4404 119.464 49.6789 119.453 50.0747C119.322 53.9079 120.913 57.5621 123.818 60.1048C127.938 63.7048 134.118 64.2416 138.848 61.4223C139.083 61.2814 139.328 61.2163 139.562 61.2163Z" fill="#C1B9AE"/>
<path d="M134.189 52.4189L133.804 52.8023L135.731 54.7189L136.116 54.3355L134.189 52.4189Z" fill="#C1B9AE"/>
<path d="M136.502 50.1205L136.116 50.5039L138.043 52.4207L138.428 52.0374L136.502 50.1205Z" fill="#C1B9AE"/>
<path d="M131.875 54.7245L131.49 55.1079L133.416 57.0247L133.802 56.6413L131.875 54.7245Z" fill="#C1B9AE"/>
<path d="M158.86 11.3855C158.108 11.3855 157.497 10.7783 157.497 10.0301C157.497 9.28193 158.108 8.6747 158.86 8.6747C159.612 8.6747 160.222 9.28193 160.222 10.0301C160.222 10.7783 159.612 11.3855 158.86 11.3855ZM158.86 9.21687C158.408 9.21687 158.042 9.58012 158.042 10.0301C158.042 10.4801 158.408 10.8434 158.86 10.8434C159.312 10.8434 159.677 10.4801 159.677 10.0301C159.677 9.58012 159.312 9.21687 158.86 9.21687Z" fill="#C1B9AE"/>
<path d="M155.045 11.3855C154.293 11.3855 153.683 10.7783 153.683 10.0301C153.683 9.28193 154.293 8.6747 155.045 8.6747C155.797 8.6747 156.407 9.28193 156.407 10.0301C156.407 10.7783 155.797 11.3855 155.045 11.3855ZM155.045 9.21687C154.593 9.21687 154.228 9.58012 154.228 10.0301C154.228 10.4801 154.593 10.8434 155.045 10.8434C155.497 10.8434 155.862 10.4801 155.862 10.0301C155.862 9.58012 155.497 9.21687 155.045 9.21687Z" fill="#C1B9AE"/>
<path d="M151.23 11.3855C150.478 11.3855 149.868 10.7783 149.868 10.0301C149.868 9.28193 150.478 8.6747 151.23 8.6747C151.982 8.6747 152.593 9.28193 152.593 10.0301C152.593 10.7783 151.982 11.3855 151.23 11.3855ZM151.23 9.21687C150.778 9.21687 150.413 9.58012 150.413 10.0301C150.413 10.4801 150.778 10.8434 151.23 10.8434C151.682 10.8434 152.048 10.4801 152.048 10.0301C152.048 9.58012 151.682 9.21687 151.23 9.21687Z" fill="#C1B9AE"/>
<path d="M81.746 37.6807H81.201V51.2349H81.746V37.6807Z" fill="#C1B9AE"/>
<path d="M81.746 53.4036H81.201V54.488H81.746V53.4036Z" fill="#C1B9AE"/>
<g opacity="0.3">
<path opacity="0.3" d="M195.373 56.6567H156.68C155.181 56.6567 153.955 55.4368 153.955 53.9458V24.6687C153.955 23.1777 155.181 21.9579 156.68 21.9579H195.373C196.872 21.9579 198.098 23.1777 198.098 24.6687V53.9458C198.098 55.4368 196.872 56.6567 195.373 56.6567Z" fill="#E4DBCB"/>
</g>
<path d="M157.77 51.2349V30.6325C157.77 29.7325 158.5 29.006 159.405 29.006H192.648C193.553 29.006 194.283 29.7325 194.283 30.6325V51.2349C194.283 52.1349 193.553 52.8614 192.648 52.8614H159.405C158.5 52.8614 157.77 52.1349 157.77 51.2349Z" fill="white"/>
<path d="M192.648 29.006H159.405C158.5 29.006 157.77 29.7325 157.77 30.6325V32.259C157.77 31.359 158.5 30.6325 159.405 30.6325H192.648C193.553 30.6325 194.283 31.359 194.283 32.259V30.6325C194.283 29.7325 193.553 29.006 192.648 29.006Z" fill="#E4DBCB"/>
<path d="M195.373 56.9277H156.68C155.029 56.9277 153.683 55.5886 153.683 53.9458V24.6687C153.683 23.0259 155.029 21.6868 156.68 21.6868H195.373C197.024 21.6868 198.37 23.0259 198.37 24.6687V53.9458C198.37 55.5886 197.024 56.9277 195.373 56.9277ZM156.68 22.229C155.328 22.229 154.228 23.3241 154.228 24.6687V53.9458C154.228 55.2904 155.328 56.3856 156.68 56.3856H195.373C196.725 56.3856 197.825 55.2904 197.825 53.9458V24.6687C197.825 23.3241 196.725 22.229 195.373 22.229H156.68Z" fill="#C1B9AE"/>
<path d="M192.648 53.1325H159.405C158.353 53.1325 157.497 52.2813 157.497 51.2349V30.6325C157.497 29.5862 158.353 28.7349 159.405 28.7349H192.648C193.7 28.7349 194.556 29.5862 194.556 30.6325V51.2349C194.556 52.2813 193.7 53.1325 192.648 53.1325ZM159.405 29.2771C158.653 29.2771 158.042 29.8843 158.042 30.6325V51.2349C158.042 51.9831 158.653 52.5904 159.405 52.5904H192.648C193.4 52.5904 194.011 51.9831 194.011 51.2349V30.6325C194.011 29.8843 193.4 29.2771 192.648 29.2771H159.405Z" fill="#C1B9AE"/>
<path d="M164.31 33.6145H162.675V34.1566H164.31V33.6145Z" fill="#C1B9AE"/>
<path d="M164.31 46.0843H162.675V46.6265H164.31V46.0843Z" fill="#C1B9AE"/>
<path d="M164.31 49.3374H162.675V49.8795H164.31V49.3374Z" fill="#C1B9AE"/>
<path d="M183.929 33.6145H165.944V34.1566H183.929V33.6145Z" fill="#C1B9AE"/>
<path d="M176.299 35.241H162.675V35.7831H176.299V35.241Z" fill="#C1B9AE"/>
<path d="M186.653 35.241H177.934V35.7831H186.653V35.241Z" fill="#C1B9AE"/>
<path d="M167.579 36.8675H162.675V37.4097H167.579V36.8675Z" fill="#C1B9AE"/>
<path d="M170.849 36.8675H168.669V37.4097H170.849V36.8675Z" fill="#C1B9AE"/>
<path d="M182.294 39.0362H168.669V39.5784H182.294V39.0362Z" fill="#C1B9AE"/>
<path d="M186.108 39.0362H183.384V39.5784H186.108V39.0362Z" fill="#C1B9AE"/>
<path d="M182.294 40.6627H168.669V41.2049H182.294V40.6627Z" fill="#C1B9AE"/>
<path d="M186.108 40.6627H183.384V41.2049H186.108V40.6627Z" fill="#C1B9AE"/>
<path d="M182.294 42.2892H168.669V42.8313H182.294V42.2892Z" fill="#C1B9AE"/>
<path d="M186.108 42.2892H183.384V42.8313H186.108V42.2892Z" fill="#C1B9AE"/>
<path d="M182.294 43.9157H168.669V44.4578H182.294V43.9157Z" fill="#C1B9AE"/>
<path d="M186.108 43.9157H183.384V44.4578H186.108V43.9157Z" fill="#C1B9AE"/>
<path d="M180.114 46.0843H165.399V46.6265H180.114V46.0843Z" fill="#C1B9AE"/>
<path d="M186.108 46.0843H181.204V46.6265H186.108V46.0843Z" fill="#C1B9AE"/>
<path d="M169.759 47.7108H162.675V48.253H169.759V47.7108Z" fill="#C1B9AE"/>
<path d="M182.839 47.7108H170.849V48.253H182.839V47.7108Z" fill="#C1B9AE"/>
<path d="M193.193 26.8373C192.594 26.8373 192.103 26.3494 192.103 25.753C192.103 25.1566 192.594 24.6686 193.193 24.6686C193.793 24.6686 194.283 25.1566 194.283 25.753C194.283 26.3494 193.793 26.8373 193.193 26.8373ZM193.193 25.2108C192.893 25.2108 192.648 25.4548 192.648 25.753C192.648 26.0512 192.893 26.2951 193.193 26.2951C193.493 26.2951 193.738 26.0512 193.738 25.753C193.738 25.4548 193.493 25.2108 193.193 25.2108Z" fill="#C1B9AE"/>
<path d="M189.923 26.8373C189.324 26.8373 188.833 26.3494 188.833 25.753C188.833 25.1566 189.324 24.6686 189.923 24.6686C190.523 24.6686 191.013 25.1566 191.013 25.753C191.013 26.3494 190.523 26.8373 189.923 26.8373ZM189.923 25.2108C189.624 25.2108 189.378 25.4548 189.378 25.753C189.378 26.0512 189.624 26.2951 189.923 26.2951C190.223 26.2951 190.468 26.0512 190.468 25.753C190.468 25.4548 190.223 25.2108 189.923 25.2108Z" fill="#C1B9AE"/>
<path d="M186.653 26.8373C186.054 26.8373 185.563 26.3494 185.563 25.753C185.563 25.1566 186.054 24.6686 186.653 24.6686C187.253 24.6686 187.743 25.1566 187.743 25.753C187.743 26.3494 187.253 26.8373 186.653 26.8373ZM186.653 25.2108C186.354 25.2108 186.108 25.4548 186.108 25.753C186.108 26.0512 186.354 26.2951 186.653 26.2951C186.953 26.2951 187.198 26.0512 187.198 25.753C187.198 25.4548 186.953 25.2108 186.653 25.2108Z" fill="#C1B9AE"/>
<path d="M0.272461 73.4639V109.789C0.272461 111.28 1.49865 112.5 2.99733 112.5H58.0396C59.5383 112.5 60.7645 111.28 60.7645 109.789V73.4639H0.272461Z" fill="white"/>
<path d="M60.7645 67.5C60.7645 66.009 59.5383 64.7892 58.0396 64.7892H2.99733C1.49865 64.7892 0.272461 66.009 0.272461 67.5V73.4639H60.7645V67.5Z" fill="#E4DBCB"/>
<path d="M58.0397 112.771H2.99735C1.34608 112.771 0 111.432 0 109.789V73.1927H61.037V109.789C61.037 111.432 59.691 112.771 58.0397 112.771ZM0.544974 73.7349V109.789C0.544974 111.134 1.64582 112.229 2.99735 112.229H58.0397C59.3912 112.229 60.4921 111.134 60.4921 109.789V73.7349H0.544974Z" fill="#C1B9AE"/>
<g opacity="0.3">
<path opacity="0.3" d="M55.3148 77.259H5.72221C4.81755 77.259 4.08729 77.9855 4.08729 78.8855V80.512C4.08729 79.612 4.81755 78.8855 5.72221 78.8855H55.3148C56.2195 78.8855 56.9497 79.612 56.9497 80.512V78.8855C56.9497 77.9855 56.2195 77.259 55.3148 77.259Z" fill="#E4DBCB"/>
</g>
<path d="M55.3148 108.976H5.72223C4.67044 108.976 3.81483 108.125 3.81483 107.078V78.8856C3.81483 77.8392 4.67044 76.988 5.72223 76.988H55.3148C56.3666 76.988 57.2222 77.8392 57.2222 78.8856V107.078C57.2222 108.125 56.3666 108.976 55.3148 108.976ZM5.72223 77.5301C4.97017 77.5301 4.3598 78.1374 4.3598 78.8856V107.078C4.3598 107.827 4.97017 108.434 5.72223 108.434H55.3148C56.0669 108.434 56.6772 107.827 56.6772 107.078V78.8856C56.6772 78.1374 56.0669 77.5301 55.3148 77.5301H5.72223Z" fill="#C1B9AE"/>
<path d="M61.037 73.7349H0V67.5C0 65.8572 1.34608 64.518 2.99735 64.518H58.0397C59.691 64.518 61.037 65.8572 61.037 67.5V73.7349ZM0.544974 73.1927H60.4921V67.5C60.4921 66.1554 59.3912 65.0602 58.0397 65.0602H2.99735C1.64582 65.0602 0.544974 66.1554 0.544974 67.5V73.1927Z" fill="#C1B9AE"/>
<path d="M57.4946 70.2109C58.0966 70.2109 58.5846 69.7254 58.5846 69.1265C58.5846 68.5277 58.0966 68.0422 57.4946 68.0422C56.8927 68.0422 56.4047 68.5277 56.4047 69.1265C56.4047 69.7254 56.8927 70.2109 57.4946 70.2109Z" fill="white"/>
<path d="M53.6799 70.2109C54.2818 70.2109 54.7698 69.7254 54.7698 69.1265C54.7698 68.5277 54.2818 68.0422 53.6799 68.0422C53.0779 68.0422 52.5899 68.5277 52.5899 69.1265C52.5899 69.7254 53.0779 70.2109 53.6799 70.2109Z" fill="white"/>
<path d="M49.865 70.2109C50.467 70.2109 50.955 69.7254 50.955 69.1265C50.955 68.5277 50.467 68.0422 49.865 68.0422C49.2631 68.0422 48.7751 68.5277 48.7751 69.1265C48.7751 69.7254 49.2631 70.2109 49.865 70.2109Z" fill="white"/>
<path d="M57.4946 70.4819C56.7426 70.4819 56.1322 69.8747 56.1322 69.1265C56.1322 68.3783 56.7426 67.7711 57.4946 67.7711C58.2467 67.7711 58.8571 68.3783 58.8571 69.1265C58.8571 69.8747 58.2467 70.4819 57.4946 70.4819ZM57.4946 68.3132C57.0423 68.3132 56.6772 68.6765 56.6772 69.1265C56.6772 69.5765 57.0423 69.9397 57.4946 69.9397C57.947 69.9397 58.3121 69.5765 58.3121 69.1265C58.3121 68.6765 57.947 68.3132 57.4946 68.3132Z" fill="#C1B9AE"/>
<path d="M53.6799 70.4819C52.9278 70.4819 52.3174 69.8747 52.3174 69.1265C52.3174 68.3783 52.9278 67.7711 53.6799 67.7711C54.4319 67.7711 55.0423 68.3783 55.0423 69.1265C55.0423 69.8747 54.4319 70.4819 53.6799 70.4819ZM53.6799 68.3132C53.2275 68.3132 52.8624 68.6765 52.8624 69.1265C52.8624 69.5765 53.2275 69.9397 53.6799 69.9397C54.1322 69.9397 54.4973 69.5765 54.4973 69.1265C54.4973 68.6765 54.1322 68.3132 53.6799 68.3132Z" fill="#C1B9AE"/>
<path d="M49.8651 70.4819C49.113 70.4819 48.5026 69.8747 48.5026 69.1265C48.5026 68.3783 49.113 67.7711 49.8651 67.7711C50.6171 67.7711 51.2275 68.3783 51.2275 69.1265C51.2275 69.8747 50.6171 70.4819 49.8651 70.4819ZM49.8651 68.3132C49.4127 68.3132 49.0476 68.6765 49.0476 69.1265C49.0476 69.5765 49.4127 69.9397 49.8651 69.9397C50.3174 69.9397 50.6825 69.5765 50.6825 69.1265C50.6825 68.6765 50.3174 68.3132 49.8651 68.3132Z" fill="#C1B9AE"/>
<path d="M11.172 94.8795H7.90212V95.4217H11.172V94.8795Z" fill="#C1B9AE"/>
<path d="M30.791 94.8795H12.8069V95.4217H30.791V94.8795Z" fill="#C1B9AE"/>
<path d="M21.5265 97.0482H7.90212V97.5904H21.5265V97.0482Z" fill="#C1B9AE"/>
<path d="M47.1402 97.0482H23.7064V97.5904H47.1402V97.0482Z" fill="#C1B9AE"/>
<path d="M11.172 99.2169H7.90212V99.7591H11.172V99.2169Z" fill="#C1B9AE"/>
<path d="M35.1508 99.2169H13.3518V99.7591H35.1508V99.2169Z" fill="#C1B9AE"/>
<path d="M20.9815 101.386H7.90212V101.928H20.9815V101.386Z" fill="#C1B9AE"/>
<path d="M8.71954 84.0361H14.1693C14.7687 84.0361 15.2592 84.5241 15.2592 85.1205V90.5422C15.2592 91.1385 14.7687 91.6265 14.1693 91.6265H8.71954C8.12007 91.6265 7.62959 91.1385 7.62959 90.5422V85.1205C7.62959 84.5241 8.12007 84.0361 8.71954 84.0361Z" fill="#E4DBCB"/>
<g opacity="0.3">
<path opacity="0.3" d="M22.6164 44.7289C21.1123 44.7289 19.8915 43.5144 19.8915 42.0181V25.2108H25.3413V42.0181C25.3413 43.5144 24.1205 44.7289 22.6164 44.7289Z" fill="#E4DBCB"/>
</g>
<path d="M21.5264 42.0181V25.2108H19.8915V42.0181C19.8915 43.5144 21.1123 44.7289 22.6164 44.7289C22.9052 44.7289 23.1723 44.6747 23.4339 44.5934C22.333 44.2464 21.5264 43.2325 21.5264 42.0181Z" fill="white"/>
<path d="M25.6137 25.2108H19.619C19.1667 25.2108 18.8016 24.8476 18.8016 24.3976C18.8016 23.9476 19.1667 23.5843 19.619 23.5843H25.6137C26.0661 23.5843 26.4312 23.9476 26.4312 24.3976C26.4312 24.8476 26.0661 25.2108 25.6137 25.2108Z" fill="white"/>
<path d="M23.1614 8.40363H22.0714V23.5844H23.1614V8.40363Z" fill="#E4DBCB"/>
<path d="M23.7063 8.40358H21.5264L20.9814 1.89756H24.2513L23.7063 8.40358Z" fill="white"/>
<path d="M22.6164 45C20.9651 45 19.6191 43.6608 19.6191 42.0181V24.9398H25.6138V42.0181C25.6138 43.6608 24.2677 45 22.6164 45ZM20.164 25.4819V42.0181C20.164 43.3627 21.2649 44.4578 22.6164 44.4578C23.968 44.4578 25.0688 43.3627 25.0688 42.0181V25.4819H20.164Z" fill="#C1B9AE"/>
<path d="M25.6138 25.482H19.619C19.0196 25.482 18.5291 24.994 18.5291 24.3976C18.5291 23.8012 19.0196 23.3133 19.619 23.3133H25.6138C26.2132 23.3133 26.7037 23.8012 26.7037 24.3976C26.7037 24.994 26.2132 25.482 25.6138 25.482ZM19.619 23.8554C19.3193 23.8554 19.0741 24.0994 19.0741 24.3976C19.0741 24.6958 19.3193 24.9398 19.619 24.9398H25.6138C25.9135 24.9398 26.1587 24.6958 26.1587 24.3976C26.1587 24.0994 25.9135 23.8554 25.6138 23.8554H19.619Z" fill="#C1B9AE"/>
<path d="M23.4339 23.8554H21.7989V8.1325H23.4339V23.8554ZM22.3439 23.3132H22.8889V8.67467H22.3439V23.3132Z" fill="#C1B9AE"/>
<path d="M23.9571 8.67468H21.2758L20.6872 1.62649H24.5511L23.9571 8.67468ZM21.7772 8.13251H23.4557L23.9571 2.16866H21.2812L21.7772 8.13251Z" fill="#C1B9AE"/>
<path d="M192.648 102.199C191.744 102.199 191.013 101.472 191.013 100.572V74.5482H194.283V100.572C194.283 101.472 193.553 102.199 192.648 102.199Z" fill="#E4DBCB"/>
<g opacity="0.3">
<path opacity="0.3" d="M198.823 65.8735H186.108V74.5482H205.728V69.6686C202.817 69.6686 200.267 68.1506 198.823 65.8735Z" fill="#E4DBCB"/>
</g>
<g opacity="0.3">
<path opacity="0.3" d="M186.108 75.6325H183.384C183.084 75.6325 182.839 75.3885 182.839 75.0903V65.3313C182.839 65.0331 183.084 64.7891 183.384 64.7891H186.108V75.6325Z" fill="#E4DBCB"/>
</g>
<path d="M186.108 68.8554H183.384C183.084 68.8554 182.839 68.6114 182.839 68.3132V65.3313C182.839 65.0331 183.084 64.7891 183.384 64.7891H186.108V68.8554Z" fill="white"/>
<path d="M192.648 102.47C191.596 102.47 190.741 101.619 190.741 100.572V74.277H194.556V100.572C194.556 101.619 193.7 102.47 192.648 102.47ZM191.286 74.8192V100.572C191.286 101.32 191.896 101.928 192.648 101.928C193.4 101.928 194.011 101.32 194.011 100.572V74.8192H191.286Z" fill="#C1B9AE"/>
<path d="M186.108 65.8735V73.1765C186.201 73.1765 186.288 73.1927 186.381 73.1927C190.844 73.1927 194.566 70.0536 195.449 65.8735H186.108Z" fill="white"/>
<path d="M206 74.8192H185.836V65.6023H198.97L199.052 65.727C200.512 68.0258 203.008 69.3975 205.728 69.3975H206V74.8192ZM186.381 74.277H205.455V69.9342C202.703 69.8475 200.196 68.4487 198.67 66.1445H186.381V74.277Z" fill="#C1B9AE"/>
<path d="M186.381 75.9036H183.384C182.931 75.9036 182.566 75.5403 182.566 75.0903V65.3313C182.566 64.8813 182.931 64.518 183.384 64.518H186.381V75.9036ZM183.384 65.0602C183.231 65.0602 183.111 65.1795 183.111 65.3313V75.0903C183.111 75.2421 183.231 75.3614 183.384 75.3614H185.836V65.0602H183.384Z" fill="#C1B9AE"/>
<path d="M195.373 67.771H188.288V68.3132H195.373V67.771Z" fill="#C1B9AE"/>
<g opacity="0.3">
<path opacity="0.3" d="M194.283 105.994H191.013C190.414 105.994 189.923 105.506 189.923 104.91V96.2349C189.923 95.6385 190.414 95.1505 191.013 95.1505H194.283C194.883 95.1505 195.373 95.6385 195.373 96.2349V104.91C195.373 105.506 194.883 105.994 194.283 105.994Z" fill="#E4DBCB"/>
</g>
<path d="M194.283 106.265H191.013C190.261 106.265 189.651 105.658 189.651 104.91V96.235C189.651 95.4868 190.261 94.8795 191.013 94.8795H194.283C195.035 94.8795 195.646 95.4868 195.646 96.235V104.91C195.646 105.658 195.035 106.265 194.283 106.265ZM191.013 95.4217C190.561 95.4217 190.196 95.785 190.196 96.235V104.91C190.196 105.36 190.561 105.723 191.013 105.723H194.283C194.735 105.723 195.101 105.36 195.101 104.91V96.235C195.101 95.785 194.735 95.4217 194.283 95.4217H191.013Z" fill="#C1B9AE"/>
<path d="M182.294 130.663H157.77C156.119 130.663 154.772 129.324 154.772 127.681V90.2711C154.772 88.6283 156.119 87.2892 157.77 87.2892H182.294C183.945 87.2892 185.291 88.6283 185.291 90.2711V127.681C185.291 129.324 183.945 130.663 182.294 130.663ZM157.77 87.8313C156.418 87.8313 155.317 88.9265 155.317 90.2711V127.681C155.317 129.025 156.418 130.12 157.77 130.12H182.294C183.645 130.12 184.746 129.025 184.746 127.681V90.2711C184.746 88.9265 183.645 87.8313 182.294 87.8313H157.77Z" fill="#C1B9AE"/>
<path d="M156.952 94.6084V113.785C158.522 114.186 160.162 114.398 161.857 114.398C172.691 114.398 181.476 105.658 181.476 94.8795C181.476 94.4241 181.454 93.9741 181.422 93.5241H158.042C157.443 93.5241 156.952 94.0121 156.952 94.6084Z" fill="white"/>
<path d="M182.021 126.325H158.042C157.29 126.325 156.68 125.718 156.68 124.97V94.6085C156.68 93.8603 157.29 93.253 158.042 93.253H182.021C182.773 93.253 183.384 93.8603 183.384 94.6085V124.97C183.384 125.718 182.773 126.325 182.021 126.325ZM158.042 93.7952C157.59 93.7952 157.225 94.1585 157.225 94.6085V124.97C157.225 125.42 157.59 125.783 158.042 125.783H182.021C182.473 125.783 182.839 125.42 182.839 124.97V94.6085C182.839 94.1585 182.473 93.7952 182.021 93.7952H158.042Z" fill="#C1B9AE"/>
<path d="M127.251 134.458H9.53701V135H127.251V134.458Z" fill="#C1B9AE"/>
<path d="M168.669 134.458H131.611V135H168.669V134.458Z" fill="#C1B9AE"/>
</g>
<defs>
<clipPath id="clip0">
<rect width="206" height="135" fill="white"/>
</clipPath>
</defs>
</svg>
