<svg width="15" height="10" viewBox="0 0 15 10" fill="none" xmlns="http://www.w3.org/2000/svg">
<path fill-rule="evenodd" clip-rule="evenodd" d="M9.93699 1.5H15V2.5H9.93699C9.71497 3.36261 8.93192 4 8 4C7.06808 4 6.28503 3.36261 6.06301 2.5H0V1.5H6.06301C6.28503 0.637386 7.06808 0 8 0C8.93192 0 9.71497 0.637386 9.93699 1.5ZM7 2C7 2.55228 7.44772 3 8 3C8.55228 3 9 2.55228 9 2C9 1.44772 8.55228 1 8 1C7.44772 1 7 1.44772 7 2Z" fill="#616370"/>
<path fill-rule="evenodd" clip-rule="evenodd" d="M3.06301 8.5L0 8.5V7.5L3.06301 7.5C3.28503 6.63739 4.06808 6 5 6C5.93192 6 6.71497 6.63739 6.93699 7.5L15 7.5V8.5L6.93699 8.5C6.71497 9.36261 5.93192 10 5 10C4.06808 10 3.28503 9.36261 3.06301 8.5ZM6 8C6 7.44772 5.55228 7 5 7C4.44772 7 4 7.44772 4 8C4 8.55228 4.44772 9 5 9C5.55228 9 6 8.55228 6 8Z" fill="#616370"/>
</svg>
