<svg width="529" height="335" viewBox="0 0 529 335" fill="none" xmlns="http://www.w3.org/2000/svg">
<g clip-path="url(#clip0)">
<path d="M115.381 22.192V172.831C138.783 184.452 165.187 190.989 193.118 190.989C289.431 190.989 367.52 113.302 367.52 17.4846C367.52 16.3548 367.493 15.2384 367.479 14.1221H123.493C119.018 14.1221 115.381 17.7401 115.381 22.192Z" fill="white"/>
<g opacity="0.3">
<path opacity="0.3" d="M300.598 256.223H238.408V323.472H300.598V256.223Z" fill="#E4DBCB"/>
</g>
<path d="M300.598 256.223H238.408V279.76H300.598V256.223Z" fill="#E4DBCB"/>
<path d="M508.8 322.799H18.041V324.144H508.8V322.799Z" fill="#C1B9AE"/>
<path d="M426.33 256.894H115.381C107.553 256.894 101.186 250.559 101.186 242.772V14.1224C101.186 6.33493 107.553 0 115.381 0H426.33C434.158 0 440.526 6.33493 440.526 14.1224V242.772C440.526 250.559 434.158 256.894 426.33 256.894ZM115.381 1.34499C108.297 1.34499 102.537 7.07467 102.537 14.1224V242.772C102.537 249.819 108.297 255.549 115.381 255.549H426.33C433.414 255.549 439.174 249.819 439.174 242.772V14.1224C439.174 7.07467 433.414 1.34499 426.33 1.34499H115.381Z" fill="#C1B9AE"/>
<path d="M418.219 201.749H123.493C118.653 201.749 114.705 197.822 114.705 193.007V22.1927C114.705 17.3776 118.653 13.4502 123.493 13.4502H418.219C423.059 13.4502 427.006 17.3776 427.006 22.1927V193.007C427.006 197.822 423.059 201.749 418.219 201.749ZM123.493 14.7952C119.396 14.7952 116.057 18.1173 116.057 22.1927V193.007C116.057 197.082 119.396 200.404 123.493 200.404H418.219C422.315 200.404 425.654 197.082 425.654 193.007V22.1927C425.654 18.1173 422.315 14.7952 418.219 14.7952H123.493Z" fill="#C1B9AE"/>
<path d="M301.275 324.144H237.733V255.549H301.275V324.144ZM239.085 322.799H299.923V256.894H239.085V322.799Z" fill="#C1B9AE"/>
<path d="M411.459 28.2455C409.593 28.2455 408.079 26.7391 408.079 24.883C408.079 23.0269 409.593 21.5205 411.459 21.5205C413.325 21.5205 414.839 23.0269 414.839 24.883C414.839 26.7391 413.325 28.2455 411.459 28.2455ZM411.459 22.8655C410.337 22.8655 409.431 23.7666 409.431 24.883C409.431 25.9993 410.337 26.9005 411.459 26.9005C412.581 26.9005 413.487 25.9993 413.487 24.883C413.487 23.7666 412.581 22.8655 411.459 22.8655Z" fill="#C1B9AE"/>
<path d="M401.995 28.2455C400.129 28.2455 398.615 26.7391 398.615 24.883C398.615 23.0269 400.129 21.5205 401.995 21.5205C403.861 21.5205 405.375 23.0269 405.375 24.883C405.375 26.7391 403.861 28.2455 401.995 28.2455ZM401.995 22.8655C400.873 22.8655 399.967 23.7666 399.967 24.883C399.967 25.9993 400.873 26.9005 401.995 26.9005C403.117 26.9005 404.023 25.9993 404.023 24.883C404.023 23.7666 403.117 22.8655 401.995 22.8655Z" fill="#C1B9AE"/>
<path d="M392.531 28.2455C390.666 28.2455 389.151 26.7391 389.151 24.883C389.151 23.0269 390.666 21.5205 392.531 21.5205C394.397 21.5205 395.911 23.0269 395.911 24.883C395.911 26.7391 394.397 28.2455 392.531 28.2455ZM392.531 22.8655C391.409 22.8655 390.503 23.7666 390.503 24.883C390.503 25.9993 391.409 26.9005 392.531 26.9005C393.653 26.9005 394.559 25.9993 394.559 24.883C394.559 23.7666 393.653 22.8655 392.531 22.8655Z" fill="#C1B9AE"/>
<path d="M469.593 324.144H408.755C404.659 324.144 401.319 320.821 401.319 316.746V223.941C401.319 219.866 404.659 216.544 408.755 216.544H469.593C473.689 216.544 477.029 219.866 477.029 223.941V316.746C477.029 320.821 473.689 324.144 469.593 324.144ZM408.755 217.889C405.402 217.889 402.671 220.606 402.671 223.941V316.746C402.671 320.082 405.402 322.799 408.755 322.799H469.593C472.946 322.799 475.677 320.082 475.677 316.746V223.941C475.677 220.606 472.946 217.889 469.593 217.889H408.755Z" fill="#C1B9AE"/>
<path d="M406.727 234.702V282.274C410.62 283.269 414.69 283.794 418.894 283.794C445.771 283.794 467.564 262.113 467.564 235.374C467.564 234.244 467.51 233.128 467.429 232.012H409.43C407.943 232.012 406.727 233.222 406.727 234.702Z" fill="white"/>
<path d="M468.917 313.385H409.431C407.565 313.385 406.051 311.878 406.051 310.022V234.702C406.051 232.846 407.565 231.34 409.431 231.34H468.917C470.782 231.34 472.296 232.846 472.296 234.702V310.022C472.296 311.878 470.782 313.385 468.917 313.385ZM409.431 232.685C408.309 232.685 407.403 233.586 407.403 234.702V310.022C407.403 311.138 408.309 312.04 409.431 312.04H468.917C470.039 312.04 470.944 311.138 470.944 310.022V234.702C470.944 233.586 470.039 232.685 468.917 232.685H409.431Z" fill="#C1B9AE"/>
<path d="M333.046 333.559H41.0244V334.904H333.046V333.559Z" fill="#C1B9AE"/>
<path d="M435.794 333.559H343.861V334.904H435.794V333.559Z" fill="#C1B9AE"/>
<path d="M230.34 139.209H216.678V156.826H197.742V139.209H152.56V126.145L192.109 72.9336H212.483L175.81 123.389H198.341V107.689H216.678V123.389H230.34V139.209ZM272.101 158.264C265.15 158.264 258.958 156.547 253.525 153.111C248.092 149.675 243.817 144.722 240.701 138.25C237.665 131.698 236.147 123.908 236.147 114.88C236.147 105.851 237.665 98.1014 240.701 91.6297C243.817 85.0781 248.092 80.0845 253.525 76.6489C258.958 73.2133 265.15 71.4955 272.101 71.4955C279.052 71.4955 285.244 73.2133 290.677 76.6489C296.11 80.0845 300.345 85.0781 303.381 91.6297C306.497 98.1014 308.055 105.851 308.055 114.88C308.055 123.908 306.497 131.698 303.381 138.25C300.345 144.722 296.11 149.675 290.677 153.111C285.244 156.547 279.052 158.264 272.101 158.264ZM272.101 141.845C277.215 141.845 281.21 139.648 284.086 135.254C287.042 130.859 288.52 124.068 288.52 114.88C288.52 105.692 287.042 98.9004 284.086 94.506C281.21 90.1116 277.215 87.9144 272.101 87.9144C267.068 87.9144 263.073 90.1116 260.117 94.506C257.24 98.9004 255.802 105.692 255.802 114.88C255.802 124.068 257.24 130.859 260.117 135.254C263.073 139.648 267.068 141.845 272.101 141.845ZM394.31 139.209H380.647V156.826H361.712V139.209H316.53V126.145L356.079 72.9336H376.453L339.78 123.389H362.311V107.689H380.647V123.389H394.31V139.209Z" fill="#E4DBCB"/>
<path d="M230.34 139.209V140.457H231.589V139.209H230.34ZM216.678 139.209V137.96H215.429V139.209H216.678ZM216.678 156.826V158.075H217.926V156.826H216.678ZM197.742 156.826H196.494V158.075H197.742V156.826ZM197.742 139.209H198.99V137.96H197.742V139.209ZM152.56 139.209H151.312V140.457H152.56V139.209ZM152.56 126.145L151.558 125.401L151.312 125.732V126.145H152.56ZM192.109 72.9336V71.6852H191.482L191.107 72.1889L192.109 72.9336ZM212.483 72.9336L213.493 73.6676L214.934 71.6852H212.483V72.9336ZM175.81 123.389L174.8 122.655L173.359 124.637H175.81V123.389ZM198.341 123.389V124.637H199.59V123.389H198.341ZM198.341 107.689V106.441H197.093V107.689H198.341ZM216.678 107.689H217.926V106.441H216.678V107.689ZM216.678 123.389H215.429V124.637H216.678V123.389ZM230.34 123.389H231.589V122.141H230.34V123.389ZM230.34 137.96H216.678V140.457H230.34V137.96ZM215.429 139.209V156.826H217.926V139.209H215.429ZM216.678 155.578H197.742V158.075H216.678V155.578ZM198.99 156.826V139.209H196.494V156.826H198.99ZM197.742 137.96H152.56V140.457H197.742V137.96ZM153.808 139.209V126.145H151.312V139.209H153.808ZM153.562 126.89L193.111 73.6783L191.107 72.1889L151.558 125.401L153.562 126.89ZM192.109 74.182H212.483V71.6852H192.109V74.182ZM211.473 72.1997L174.8 122.655L176.82 124.123L213.493 73.6676L211.473 72.1997ZM175.81 124.637H198.341V122.141H175.81V124.637ZM199.59 123.389V107.689H197.093V123.389H199.59ZM198.341 108.938H216.678V106.441H198.341V108.938ZM215.429 107.689V123.389H217.926V107.689H215.429ZM216.678 124.637H230.34V122.141H216.678V124.637ZM229.092 123.389V139.209H231.589V123.389H229.092ZM253.525 153.111L254.192 152.056L253.525 153.111ZM240.701 138.25L239.569 138.775L239.573 138.783L239.577 138.792L240.701 138.25ZM240.701 91.6297L239.574 91.0935L239.571 91.0995L240.701 91.6297ZM253.525 76.6489L254.192 77.704L253.525 76.6489ZM290.677 76.6489L290.01 77.704L290.677 76.6489ZM303.381 91.6297L302.248 92.1546L302.252 92.163L302.256 92.1713L303.381 91.6297ZM303.381 138.25L302.254 137.714L302.251 137.72L303.381 138.25ZM290.677 153.111L290.01 152.056L290.677 153.111ZM284.086 135.254L283.05 134.557L283.046 134.564L283.041 134.57L284.086 135.254ZM284.086 94.506L283.041 95.1897L283.046 95.1963L283.05 95.2028L284.086 94.506ZM260.117 94.506L259.081 93.8092L259.076 93.8157L259.072 93.8223L260.117 94.506ZM260.117 135.254L259.072 135.938L259.076 135.944L259.081 135.951L260.117 135.254ZM272.101 157.016C265.366 157.016 259.409 155.355 254.192 152.056L252.858 154.166C258.507 157.738 264.934 159.513 272.101 159.513V157.016ZM254.192 152.056C248.979 148.759 244.853 143.995 241.826 137.708L239.577 138.792C242.782 145.448 247.205 150.591 252.858 154.166L254.192 152.056ZM241.834 137.725C238.891 131.374 237.396 123.771 237.396 114.88H234.899C234.899 124.046 236.44 132.023 239.569 138.775L241.834 137.725ZM237.396 114.88C237.396 105.988 238.891 98.428 241.832 92.1599L239.571 91.0995C236.44 97.7748 234.899 105.715 234.899 114.88H237.396ZM241.829 92.1659C244.857 85.7991 248.983 80.9979 254.192 77.704L252.858 75.5937C247.201 79.1711 242.778 84.3571 239.574 91.0935L241.829 92.1659ZM254.192 77.704C259.409 74.405 265.366 72.7439 272.101 72.7439V70.2471C264.934 70.2471 258.507 72.0216 252.858 75.5937L254.192 77.704ZM272.101 72.7439C278.836 72.7439 284.793 74.405 290.01 77.704L291.345 75.5937C285.696 72.0216 279.269 70.2471 272.101 70.2471V72.7439ZM290.01 77.704C295.216 80.9959 299.3 85.7931 302.248 92.1546L304.514 91.1048C301.39 84.3631 297.005 79.1731 291.345 75.5937L290.01 77.704ZM302.256 92.1713C305.273 98.4363 306.807 105.992 306.807 114.88H309.304C309.304 105.711 307.721 97.7665 304.506 91.0881L302.256 92.1713ZM306.807 114.88C306.807 123.767 305.273 131.365 302.254 137.714L304.509 138.786C307.721 132.031 309.304 124.05 309.304 114.88H306.807ZM302.251 137.72C299.304 144.001 295.22 148.761 290.01 152.056L291.345 154.166C297.001 150.589 301.386 145.442 304.511 138.78L302.251 137.72ZM290.01 152.056C284.793 155.355 278.836 157.016 272.101 157.016V159.513C279.269 159.513 285.696 157.738 291.345 154.166L290.01 152.056ZM272.101 143.094C277.649 143.094 282.031 140.673 285.13 135.938L283.041 134.57C280.388 138.624 276.78 140.597 272.101 140.597V143.094ZM285.122 135.951C288.285 131.248 289.769 124.155 289.769 114.88H287.272C287.272 123.981 285.799 130.471 283.05 134.557L285.122 135.951ZM289.769 114.88C289.769 105.605 288.285 98.5117 285.122 93.8092L283.05 95.2028C285.799 99.2891 287.272 105.779 287.272 114.88H289.769ZM285.13 93.8223C282.031 89.0871 277.649 86.666 272.101 86.666V89.1628C276.78 89.1628 280.388 91.1362 283.041 95.1897L285.13 93.8223ZM272.101 86.666C266.627 86.666 262.254 89.0915 259.081 93.8092L261.152 95.2028C263.891 91.1318 267.508 89.1628 272.101 89.1628V86.666ZM259.072 93.8223C255.996 98.5216 254.554 105.609 254.554 114.88H257.05C257.05 105.775 258.484 99.2791 261.161 95.1897L259.072 93.8223ZM254.554 114.88C254.554 124.151 255.996 131.238 259.072 135.938L261.161 134.57C258.484 130.481 257.05 123.985 257.05 114.88H254.554ZM259.081 135.951C262.254 140.668 266.627 143.094 272.101 143.094V140.597C267.508 140.597 263.891 138.628 261.152 134.557L259.081 135.951ZM394.31 139.209V140.457H395.558V139.209H394.31ZM380.647 139.209V137.96H379.399V139.209H380.647ZM380.647 156.826V158.075H381.896V156.826H380.647ZM361.712 156.826H360.463V158.075H361.712V156.826ZM361.712 139.209H362.96V137.96H361.712V139.209ZM316.53 139.209H315.281V140.457H316.53V139.209ZM316.53 126.145L315.528 125.401L315.281 125.732V126.145H316.53ZM356.079 72.9336V71.6852H355.451L355.077 72.1889L356.079 72.9336ZM376.453 72.9336L377.463 73.6676L378.904 71.6852H376.453V72.9336ZM339.78 123.389L338.77 122.655L337.329 124.637H339.78V123.389ZM362.311 123.389V124.637H363.559V123.389H362.311ZM362.311 107.689V106.441H361.063V107.689H362.311ZM380.647 107.689H381.896V106.441H380.647V107.689ZM380.647 123.389H379.399V124.637H380.647V123.389ZM394.31 123.389H395.558V122.141H394.31V123.389ZM394.31 137.96H380.647V140.457H394.31V137.96ZM379.399 139.209V156.826H381.896V139.209H379.399ZM380.647 155.578H361.712V158.075H380.647V155.578ZM362.96 156.826V139.209H360.463V156.826H362.96ZM361.712 137.96H316.53V140.457H361.712V137.96ZM317.778 139.209V126.145H315.281V139.209H317.778ZM317.532 126.89L357.081 73.6783L355.077 72.1889L315.528 125.401L317.532 126.89ZM356.079 74.182H376.453V71.6852H356.079V74.182ZM375.443 72.1997L338.77 122.655L340.79 124.123L377.463 73.6676L375.443 72.1997ZM339.78 124.637H362.311V122.141H339.78V124.637ZM363.559 123.389V107.689H361.063V123.389H363.559ZM362.311 108.938H380.647V106.441H362.311V108.938ZM379.399 107.689V123.389H381.896V107.689H379.399ZM380.647 124.637H394.31V122.141H380.647V124.637ZM393.062 123.389V139.209H395.558V123.389H393.062Z" fill="#C1B9AE"/>
</g>
<g clip-path="url(#clip1)">
<path fill-rule="evenodd" clip-rule="evenodd" d="M85.1853 96.95C85.1853 96.95 82.1188 67.1017 96.4519 52.1377C96.4519 52.1377 96.6456 76.8859 85.1853 96.95Z" fill="#E4DBCB"/>
<path fill-rule="evenodd" clip-rule="evenodd" d="M78.5363 77.8428C78.5363 77.8428 84.4372 100.019 82.2241 113.462C82.226 113.463 72.7256 93.9579 78.5363 77.8428Z" fill="#E4DBCB"/>
<path fill-rule="evenodd" clip-rule="evenodd" d="M110.882 94.7266C110.494 97.0287 100.442 117.072 79.9987 127C79.9987 127 98.0982 98.7553 110.882 94.7266Z" fill="#E4DBCB"/>
<path fill-rule="evenodd" clip-rule="evenodd" d="M70.984 103.55C70.984 103.55 79.1612 123.04 77.5906 142.933C77.5906 142.933 66.5291 119.663 70.984 103.55Z" fill="#E4DBCB"/>
<path fill-rule="evenodd" clip-rule="evenodd" d="M108.061 124.325C108.061 124.325 92.4828 149.493 76.0612 153.887C76.0612 153.887 87.1438 131.038 108.061 124.325Z" fill="#E4DBCB"/>
<path fill-rule="evenodd" clip-rule="evenodd" d="M69.6755 139.516C69.6755 139.516 75.7816 149.97 75.3923 158.94C75.3923 158.938 67.0597 148.914 69.6755 139.516Z" fill="#E4DBCB"/>
<path d="M65.6698 299.182L65.6698 299.182C66.3081 242.265 71.4602 190.987 76.4171 154.105C77.2716 153.534 79.0719 151.926 81.3023 149.827C83.5724 147.69 86.2969 145.036 88.9431 142.424C94.2356 137.199 99.2169 132.14 99.6274 131.723C99.7747 131.574 99.7688 131.336 99.6196 131.193C99.4708 131.049 99.2313 131.05 99.0866 131.201C98.9743 131.316 94.3391 136.023 89.2081 141.101C84.2242 146.033 78.7815 151.307 76.5559 153.07C77.2653 147.821 77.9706 142.872 78.6574 138.244L78.5528 138.229L78.6574 138.244C79.2203 134.446 79.7832 130.779 80.3404 127.256C80.7766 127.022 81.4454 126.496 82.2788 125.76C83.147 124.993 84.2028 123.99 85.3767 122.834C87.7245 120.52 90.5478 117.584 93.292 114.674C98.7802 108.852 103.955 103.124 104.384 102.649H104.384C104.524 102.495 104.51 102.256 104.355 102.119C104.201 101.981 103.962 101.994 103.823 102.148L103.823 102.148C100.345 106 95.2723 111.526 90.6625 116.36C88.3575 118.777 86.1689 121.02 84.3538 122.795C82.6798 124.432 81.3295 125.665 80.4991 126.27C85.7892 93.0187 90.5233 72.7946 90.5763 72.5735L90.5763 72.5734C90.625 72.37 90.495 72.17 90.2943 72.123C90.0914 72.0754 89.8892 72.2021 89.8412 72.4027L89.8412 72.4029C89.7971 72.5891 86.5561 86.4339 82.4461 109.994C81.7116 104.182 79.7659 90.9542 79.4936 89.1085L65.6698 299.182ZM65.6698 299.182C65.6673 299.374 65.5216 299.528 65.3357 299.55L65.6698 299.182ZM77.3715 142.193C77.3715 142.239 77.383 142.284 77.4041 142.322M77.3715 142.193L70.949 145.093L75.1983 157.537C75.2086 157.458 75.219 157.379 75.2293 157.301M77.3715 142.193C77.3753 141.412 73.5475 121.618 72.0728 114.058M77.3715 142.193L72.0728 114.058M77.4041 142.322C76.8767 145.973 76.3397 149.81 75.8009 153.814M77.4041 142.322L77.3116 142.373C77.3054 142.362 77.2998 142.351 77.2948 142.339M77.4041 142.322L77.2994 142.307C77.2979 142.318 77.2963 142.328 77.2948 142.339M75.8009 153.814C75.7932 153.84 75.7894 153.867 75.7894 153.894M75.8009 153.814L75.696 153.8C75.6963 153.797 75.6967 153.795 75.697 153.793M75.8009 153.814L75.6992 153.785C75.6984 153.787 75.6977 153.79 75.697 153.793M75.7894 153.894C75.629 155.088 75.4669 156.302 75.3064 157.526L75.2293 157.301M75.7894 153.894H75.6836C75.6836 153.891 75.6836 153.889 75.6836 153.886M75.7894 153.894L75.6845 153.88C75.6842 153.882 75.6839 153.884 75.6836 153.886M75.2293 157.301L71.0491 145.059C70.9821 144.863 70.7665 144.758 70.5702 144.824C70.3733 144.89 70.2659 145.104 70.333 145.3L70.4331 145.266M75.2293 157.301C75.3805 156.15 75.5328 155.009 75.6836 153.886M70.4331 145.266L75.1143 158.979L70.4331 145.266ZM70.4331 145.266L70.333 145.3L75.0062 158.989C70.2586 195.462 65.5234 244.744 64.9117 299.177L72.2876 113.743L72.2675 113.639C72.0634 113.678 71.9288 113.874 71.969 114.078M75.6836 153.886C75.6843 153.854 75.6888 153.823 75.697 153.793M75.697 153.793C76.234 149.802 76.7692 145.978 77.2948 142.339M77.2948 142.339C77.2756 142.293 77.2657 142.243 77.2657 142.193L77.2657 142.192C77.2659 142.154 77.2528 142.04 77.2242 141.847C77.1961 141.658 77.1546 141.403 77.1011 141.088C76.994 140.458 76.8392 139.591 76.6485 138.55C76.2672 136.466 75.7431 133.683 75.1727 130.687C74.0319 124.696 72.7063 117.858 71.969 114.078M71.969 114.078L72.0728 114.058M71.969 114.078C71.969 114.078 71.969 114.078 71.969 114.078L72.0728 114.058M81.9767 112.728C81.9759 112.723 81.9752 112.717 81.9745 112.711C81.9754 112.706 81.9763 112.7 81.9772 112.695L82.0814 112.713L81.9767 112.728ZM79.6298 126.925L79.7341 126.942L79.6296 126.926L79.6298 126.925ZM77.6229 140.093C77.6332 140.023 77.6435 139.953 77.6538 139.883C77.674 139.996 77.6934 140.107 77.7121 140.214L77.663 140.548C77.6445 140.441 77.6252 140.33 77.605 140.215L77.6229 140.093Z" fill="#C1B9AE" stroke="#C1B9AE" stroke-width="0.211567"/>
<path fill-rule="evenodd" clip-rule="evenodd" d="M23.3916 171.107C23.3916 171.107 23.242 151.896 3.48553 130.984C3.48553 130.984 7.55304 156.69 23.3916 171.107Z" fill="#E4DBCB"/>
<path fill-rule="evenodd" clip-rule="evenodd" d="M35.0557 147.673C35.0557 147.673 44.6482 177.251 33.0728 192.772C33.0728 192.774 30.9882 164.555 35.0557 147.673Z" fill="#E4DBCB"/>
<path fill-rule="evenodd" clip-rule="evenodd" d="M46.9552 167.254C46.9552 167.254 51.5942 194.806 39.7426 210.085C39.7426 210.087 41.6411 179.709 46.9552 167.254Z" fill="#E4DBCB"/>
<path fill-rule="evenodd" clip-rule="evenodd" d="M53.8425 193.715C53.8425 193.715 55.2251 213.346 44.365 223.768C44.3669 223.768 48.2273 205.801 53.8425 193.715Z" fill="#E4DBCB"/>
<path fill-rule="evenodd" clip-rule="evenodd" d="M29.1436 183.556C29.1436 183.556 22.0786 168.201 -0.000207901 161.103C-0.000207901 161.103 10.6528 176.065 29.1436 183.556Z" fill="#E4DBCB"/>
<path fill-rule="evenodd" clip-rule="evenodd" d="M36.3574 200.996C36.3574 200.996 26.1493 187.575 6.78026 181.819C6.78026 181.819 13.7531 192.755 36.3574 200.996Z" fill="#E4DBCB"/>
<path fill-rule="evenodd" clip-rule="evenodd" d="M42.251 217.3C42.251 217.3 33.5061 206.95 14.9137 201.964C14.9137 201.964 25.5648 214.432 42.251 217.3Z" fill="#E4DBCB"/>
<path d="M18.7667 188.847C18.8848 188.677 19.1213 188.636 19.2914 188.754C19.2914 188.754 19.2915 188.754 19.2915 188.754L35.5595 199.991C35.3232 199.385 35.0873 198.784 34.8542 198.193C32.8138 193.034 30.7829 188.211 28.8264 183.779L12.4303 169.487L12.4302 169.487C12.2733 169.35 12.2566 169.114 12.3959 168.958C12.5339 168.802 12.7708 168.786 12.928 168.923L28.0984 182.15C19.9613 163.926 13.314 152.709 13.181 152.484L13.1801 152.483C13.18 152.483 13.1799 152.483 13.1798 152.483C13.0722 152.303 13.1355 152.074 13.3128 151.969C13.4921 151.863 13.7231 151.924 13.8293 152.1L13.8295 152.101C13.9175 152.248 20.9693 164.132 29.4616 183.362C29.4802 183.392 29.4917 183.422 29.4999 183.447C30.6375 186.027 31.8018 188.739 32.9791 191.572C33.6303 188.514 34.2575 182.524 34.7291 177.186C35.2156 171.68 35.5356 166.879 35.545 166.737L35.5451 166.736L18.8533 188.908M18.7667 188.847C18.7666 188.847 18.7665 188.847 18.7663 188.847L18.8533 188.908M18.7667 188.847C18.7668 188.847 18.7669 188.847 18.767 188.846L18.8533 188.908M18.7667 188.847C18.6465 189.017 18.6893 189.252 18.8604 189.369L18.8603 189.369L18.9204 189.282M18.8533 188.908C18.767 189.029 18.7976 189.198 18.9204 189.282M18.9204 189.282L18.8608 189.369L18.9204 189.282ZM59.2333 304.602H59.2292L35.5451 166.736C35.5586 166.529 35.7397 166.371 35.9476 166.387C36.1551 166.4 36.3123 166.579 36.299 166.786C36.2711 167.216 35.9216 172.472 35.3991 178.241C35.1379 181.125 34.8334 184.139 34.5042 186.741C34.1784 189.317 33.8276 191.498 33.4689 192.754C34.1606 194.432 34.8542 196.15 35.5496 197.908C35.9379 198.89 36.3224 199.871 36.7011 200.853C36.7038 200.858 36.7059 200.863 36.7076 200.868C36.7078 200.869 36.708 200.869 36.7082 200.87C37.759 203.586 38.7757 206.305 39.7585 209.023C40.6676 206.309 42.0643 199.575 43.2568 193.384C44.4919 186.973 45.5053 181.158 45.5263 181.037L45.5265 181.036C45.5638 180.831 45.7585 180.697 45.9625 180.731L45.9638 180.731C46.1668 180.767 46.3068 180.959 46.2718 181.164L46.2717 181.165C46.2687 181.182 46.2646 181.205 46.2594 181.235C46.1075 182.103 45.0364 188.222 43.7846 194.651C43.1372 197.976 42.4414 201.384 41.7993 204.192C41.1674 206.956 40.5847 209.152 40.1488 210.109C40.9934 212.465 41.8115 214.82 42.6049 217.174C42.6049 217.174 42.6052 217.175 42.6056 217.176C42.6065 217.178 42.6086 217.183 42.6107 217.189C43.2664 219.134 43.9041 221.079 44.5238 223.022C45.1538 222.181 45.8325 220.75 46.5024 219.044C47.2141 217.232 47.9111 215.122 48.5254 213.109C49.7529 209.085 50.648 205.455 50.6673 205.376C50.7156 205.174 50.9206 205.051 51.1222 205.1C51.3259 205.148 51.4483 205.352 51.4004 205.553L51.4002 205.553C51.3224 205.871 50.3739 209.718 49.0905 213.853C48.4488 215.921 47.7229 218.062 46.9796 219.872C46.2532 221.64 45.5042 223.107 44.7933 223.872C47.1853 231.431 49.3045 238.958 51.1356 246.408C56.0407 266.36 58.8878 285.809 59.5957 304.213C59.6038 304.42 59.4404 304.594 59.2333 304.602ZM41.7046 216.567C41.7213 216.617 41.7381 216.666 41.7548 216.716L41.6175 216.64C41.6007 216.59 41.584 216.541 41.5672 216.491L41.7046 216.567ZM36.07 201.256L36.0432 201.237C36.0393 201.227 36.0353 201.217 36.0314 201.207L36.1301 201.169L36.07 201.256ZM24.4889 207.052L24.4889 207.052L24.4377 207.145L24.4889 207.052ZM23.9753 207.197C23.9754 207.197 23.9754 207.197 23.9754 207.197L24.0676 207.249L23.9751 207.198C23.9752 207.197 23.9753 207.197 23.9753 207.197ZM24.1224 207.708L24.1219 207.708L24.1731 207.616L24.1224 207.708C24.1224 207.708 24.1224 207.708 24.1224 207.708ZM41.9227 217.547C41.9183 217.534 41.914 217.521 41.9096 217.507L42.0099 217.474L41.9587 217.566L41.9227 217.547ZM35.783 200.274L35.6279 200.167L35.7147 200.098C35.7375 200.157 35.7602 200.216 35.783 200.274Z" fill="#C1B9AE" stroke="#C1B9AE" stroke-width="0.211567"/>
<path fill-rule="evenodd" clip-rule="evenodd" d="M158.77 149.304C157.801 151.414 136.928 178.74 121.314 184.548C121.314 184.548 132.042 157.169 158.77 149.304Z" fill="#E4DBCB"/>
<path fill-rule="evenodd" clip-rule="evenodd" d="M125.069 152.374C125.069 152.374 121.134 180.56 112.159 198.121C112.159 198.119 110.157 167.528 125.069 152.374Z" fill="#E4DBCB"/>
<path fill-rule="evenodd" clip-rule="evenodd" d="M154.43 187.132C154.43 187.132 137.906 202.466 109.756 201.993C109.756 201.993 130.995 191.066 154.43 187.132Z" fill="#E4DBCB"/>
<path fill-rule="evenodd" clip-rule="evenodd" d="M103.185 164.652C103.185 164.652 113.042 189.638 103.948 211.964C103.948 211.962 101.248 179.423 103.185 164.652Z" fill="#E4DBCB"/>
<path fill-rule="evenodd" clip-rule="evenodd" d="M148.086 209.729C148.086 209.729 132.378 221.287 102.367 214.836C102.367 214.836 119.615 210.496 148.086 209.729Z" fill="#E4DBCB"/>
<path fill-rule="evenodd" clip-rule="evenodd" d="M95.2426 183.258C95.2426 183.258 102.549 206.441 98.5085 222.186C98.5085 222.186 91.1751 199.947 95.2426 183.258Z" fill="#E4DBCB"/>
<path fill-rule="evenodd" clip-rule="evenodd" d="M134.561 225.271C134.561 225.271 116.814 230.979 97.1187 224.96C97.1187 224.958 111.124 221.051 134.561 225.271Z" fill="#E4DBCB"/>
<path d="M71.2103 301.997L71.2105 301.996C77.4412 271.141 87.5754 245.215 97.3494 225.385C99.148 225.692 103.602 225.834 108.212 225.897C112.893 225.96 117.749 225.943 120.182 225.935L120.184 225.935C120.323 225.934 120.454 225.934 120.575 225.933C120.903 225.932 121.163 225.931 121.342 225.931C121.548 225.931 121.72 225.765 121.72 225.556C121.72 225.346 121.551 225.18 121.342 225.18C121.163 225.18 120.905 225.181 120.577 225.182C120.454 225.183 120.322 225.183 120.181 225.184C113.876 225.207 108.822 225.173 105.042 225.085C101.402 225.001 98.9495 224.865 97.6979 224.681C99.3507 221.351 100.99 218.195 102.599 215.22C105.387 215.285 113.333 214.685 120.739 214.054C128.208 213.417 135.139 212.748 135.71 212.693L135.711 212.693C135.917 212.672 136.07 212.491 136.049 212.283C136.027 212.077 135.845 211.926 135.636 211.947M71.2103 301.997L135.646 212.052M71.2103 301.997C71.173 302.174 71.0162 302.297 70.8402 302.297C70.8164 302.297 70.7921 302.295 70.7755 302.293L70.7754 302.293L70.7671 302.291C70.5633 302.249 70.4316 302.054 70.4718 301.85L70.4719 301.85L71.2103 301.997ZM135.636 211.947C135.636 211.947 135.636 211.947 135.636 211.947L135.646 212.052M135.636 211.947C135.636 211.947 135.636 211.947 135.636 211.947L135.646 212.052M135.636 211.947C135.493 211.961 128.789 212.608 121.37 213.244C114.086 213.869 106.124 214.481 103.001 214.474M135.646 212.052C135.374 212.079 109.161 214.61 102.944 214.579C102.963 214.544 102.982 214.509 103.001 214.474M103.001 214.474C102.961 214.474 102.921 214.474 102.881 214.473C102.862 214.508 102.843 214.543 102.824 214.578L108.84 204.033C109.203 203.427 109.563 202.828 109.924 202.238M103.001 214.474C105.048 210.711 107.04 207.245 108.931 204.087L108.931 204.087C109.285 203.495 109.637 202.911 109.989 202.334M109.989 202.334C109.973 202.336 109.957 202.339 109.942 202.342L109.924 202.238M109.989 202.334C111.169 202.123 113.771 201.403 117.03 200.438C120.336 199.458 124.326 198.222 128.21 196.999C135.977 194.552 143.321 192.155 143.925 191.958L143.926 191.957C144.121 191.892 144.233 191.681 144.165 191.483C144.099 191.288 143.887 191.18 143.689 191.246M109.989 202.334C109.997 202.32 110.006 202.306 110.014 202.293L109.924 202.238M109.924 202.238C114.518 201.444 142.684 192.252 143.892 191.857L133.316 168.919M133.316 168.919C133.457 168.766 133.696 168.759 133.848 168.9M133.316 168.919C133.316 168.919 133.315 168.919 133.315 168.92L133.393 168.991L133.316 168.919ZM133.848 168.9C134.004 169.042 134.008 169.28 133.867 169.43L133.867 169.43C133.762 169.542 123.21 180.788 110.526 201.457M133.848 168.9C133.848 168.9 133.849 168.901 133.849 168.901L133.776 168.978L133.847 168.9C133.848 168.9 133.848 168.9 133.848 168.9ZM110.526 201.457C113.612 200.752 121.649 198.282 129.043 195.946C136.178 193.692 142.705 191.566 143.59 191.278C143.646 191.26 143.679 191.249 143.689 191.246M110.526 201.457C110.477 201.468 110.429 201.479 110.382 201.49M110.526 201.457C110.5 201.499 110.474 201.541 110.449 201.583L110.382 201.49M143.689 191.246C143.689 191.246 143.689 191.245 143.689 191.245L143.722 191.346L143.688 191.246C143.688 191.246 143.689 191.246 143.689 191.246ZM110.382 201.49C110.356 201.531 110.331 201.573 110.305 201.615L110.382 201.49ZM109.438 201.793C109.438 201.793 109.437 201.794 109.436 201.795C109.435 201.797 109.434 201.799 109.432 201.802L109.432 201.802L109.436 201.795C109.436 201.795 109.437 201.794 109.437 201.794L109.438 201.793ZM109.438 201.793C109.439 201.792 109.439 201.791 109.439 201.791L109.438 201.792L109.438 201.793ZM99.277 220.097C99.2352 220.178 99.1934 220.259 99.1517 220.34C99.1595 220.252 99.1666 220.161 99.173 220.068C99.213 219.99 99.253 219.913 99.2931 219.836C99.2883 219.925 99.2829 220.012 99.277 220.097ZM102.032 214.67L102.032 214.668C102.033 214.668 102.033 214.667 102.033 214.667L102.126 214.717L102.032 214.67ZM112.889 196.276C112.934 196.205 112.979 196.135 113.025 196.064C113.013 196.149 113.001 196.232 112.991 196.313C112.946 196.382 112.902 196.451 112.858 196.52C112.867 196.441 112.878 196.359 112.889 196.276ZM112.132 197.525C112.128 197.508 112.125 197.491 112.123 197.474C112.131 197.463 112.138 197.451 112.145 197.44L112.234 197.497L112.132 197.525ZM109.425 201.814C109.426 201.812 109.427 201.81 109.428 201.808C109.428 201.808 109.428 201.807 109.429 201.806L109.519 201.862L109.425 201.814ZM104.646 209.948C104.696 209.86 104.746 209.773 104.795 209.685C104.78 209.786 104.764 209.885 104.748 209.984C104.696 210.074 104.645 210.165 104.594 210.255C104.612 210.154 104.629 210.052 104.646 209.948ZM104.268 175.213L104.276 175.318L104.266 175.213C104.267 175.213 104.267 175.213 104.267 175.213C104.267 175.213 104.268 175.213 104.268 175.213ZM103.593 211.835C103.594 211.831 103.595 211.827 103.596 211.822C103.598 211.818 103.6 211.815 103.602 211.811L103.695 211.862L103.593 211.835ZM97.1183 194.432L97.0134 194.446L97.1183 194.432L97.1183 194.432ZM98.4441 221.31L98.3428 221.28C98.3429 221.279 98.343 221.279 98.343 221.279L98.4441 221.31ZM98.3891 221.594C98.3997 221.573 98.4102 221.553 98.4208 221.532L98.515 221.58L98.4427 221.657C98.4224 221.638 98.4044 221.617 98.3891 221.594ZM96.7886 224.78C96.7886 224.78 96.7886 224.78 96.7886 224.78L96.883 224.828L96.7882 224.781C96.7883 224.781 96.7884 224.781 96.7886 224.78ZM96.8715 224.853L96.7734 224.813C96.774 224.812 96.7746 224.81 96.7751 224.809C96.7757 224.808 96.7762 224.807 96.7767 224.806L96.8715 224.853Z" fill="#C1B9AE" stroke="#C1B9AE" stroke-width="0.211567"/>
<path fill-rule="evenodd" clip-rule="evenodd" d="M34.626 69.2255C34.626 69.2255 33.8934 34.1062 10.4587 7.44141C10.4587 7.44141 16.6568 42.3556 34.626 69.2255Z" fill="#E4DBCB"/>
<path fill-rule="evenodd" clip-rule="evenodd" d="M53.0695 37.751C53.0695 37.751 59.047 77.1821 42.8882 95.0656C42.8863 95.0656 47.4524 49.0699 53.0695 37.751Z" fill="#E4DBCB"/>
<path fill-rule="evenodd" clip-rule="evenodd" d="M68.1751 63.4561C68.1751 63.4561 68.992 105.71 50.8618 123.046C50.8618 123.046 58.1032 86.2839 68.1751 63.4561Z" fill="#E4DBCB"/>
<path fill-rule="evenodd" clip-rule="evenodd" d="M38.1992 80.0709C38.1992 80.0709 26.921 58.0845 3.48632 52.3291C3.48632 52.331 19.5627 71.5137 38.1992 80.0709Z" fill="#E4DBCB"/>
<path fill-rule="evenodd" clip-rule="evenodd" d="M46.71 108.038C46.71 108.038 35.2496 92.6179 8.13474 83.793C8.13474 83.793 23.4363 100.865 46.71 108.038Z" fill="#E4DBCB"/>
<path fill-rule="evenodd" clip-rule="evenodd" d="M53.8164 134.444C53.8164 134.444 42.8048 120.817 19.3682 114.294C19.3701 114.294 32.7329 129.832 53.8164 134.444Z" fill="#E4DBCB"/>
<path opacity="0.31" fill-rule="evenodd" clip-rule="evenodd" d="M67.207 120.718C67.207 120.718 64.5932 136.799 56.0228 143.434C56.0228 143.435 56.3603 130.886 67.207 120.718Z" fill="#E4DBCB"/>
<path d="M56.1973 142.549C56.9713 141.274 58.3449 138.437 59.7435 135.418C61.2242 132.221 62.7284 128.831 63.5681 126.903C63.651 126.712 63.8724 126.626 64.0633 126.707C64.2548 126.789 64.3438 127.009 64.2607 127.2L64.2606 127.2L64.229 127.272C63.9659 127.874 62.4605 131.316 60.8124 134.902C59.9439 136.791 59.0354 138.721 58.2479 140.296C57.8543 141.084 57.4905 141.784 57.1768 142.346C56.8813 142.875 56.6274 143.288 56.4331 143.536C62.02 166.922 66.2434 189.403 69.0226 210.586C73.4841 244.583 74.223 275.329 71.2148 301.964C71.1933 302.156 71.0276 302.298 70.8393 302.298C70.8374 302.298 70.8355 302.298 70.8338 302.298L70.8229 302.302L70.7966 302.299C70.5905 302.275 70.4398 302.091 70.4638 301.884C76.7557 246.166 65.3691 182.063 53.4838 134.685L32.2435 121.713L32.2432 121.713C32.0673 121.604 32.0108 121.374 32.1205 121.197L32.1208 121.196C32.2303 121.021 32.4616 120.967 32.6392 121.074L32.6395 121.075L53.2221 133.643C52.3553 130.208 51.4869 126.866 50.6239 123.621L50.6239 123.621C50.6177 123.598 50.6115 123.575 50.6053 123.551C50.5904 123.496 50.5756 123.441 50.5607 123.385L50.5603 123.384C50.5403 123.309 50.5202 123.235 50.5001 123.159C50.4966 123.15 50.4945 123.142 50.4934 123.135C49.0883 117.869 47.666 112.749 46.2437 107.791L22.9359 92.5467L22.9359 92.5466C22.7624 92.433 22.7138 92.1999 22.8292 92.0271C22.944 91.8551 23.178 91.8081 23.351 91.9214L45.9258 106.686C43.1929 97.211 40.4668 88.3604 37.8699 80.3067C37.3654 79.9443 35.9913 78.7282 34.1864 77.0828C32.3418 75.4011 30.0395 73.2637 27.7363 71.1108C23.1299 66.8049 18.5189 62.436 17.5572 61.5242L17.5569 61.5239C17.407 61.3807 17.4021 61.1447 17.5458 60.9944L17.5465 60.9937C17.6901 60.8462 17.9289 60.8404 18.0786 60.9831C24.7264 67.2845 34.3669 76.3312 37.4462 78.9966C28.37 50.9911 21.0135 32.9907 20.9073 32.7314L20.907 32.7307C20.8301 32.5391 20.9199 32.3186 21.116 32.2415C21.3073 32.1662 21.5292 32.2533 21.6076 32.4485C21.6076 32.4485 21.6077 32.4486 21.6077 32.4487L21.5095 32.4881M56.1973 142.549L38.5288 79.8898M56.1973 142.549C54.68 136.236 53.0655 129.859 51.3519 123.423L51.3518 123.422C51.3366 123.366 51.3218 123.31 51.3069 123.253L51.3066 123.252C51.2962 123.212 51.2857 123.172 51.2751 123.132C51.7719 122.465 52.3241 121.43 52.9107 120.13C53.5103 118.802 54.1487 117.191 54.8031 115.403C56.112 111.828 57.4871 107.539 58.7479 103.376C61.2691 95.0507 63.3351 87.2198 63.5046 86.5742L56.1973 142.549ZM21.5095 32.4881C21.6188 32.7521 29.1804 51.2549 38.4316 79.9331M21.5095 32.4881C21.4539 32.3494 21.2947 32.2848 21.1547 32.3399C21.0147 32.395 20.9495 32.5527 21.0051 32.6913M21.5095 32.4881L21.0051 32.6913M38.4316 79.9331L38.522 79.8782C38.5244 79.8821 38.5266 79.8859 38.5288 79.8898M38.4316 79.9331L38.5322 79.9006C38.5311 79.897 38.5299 79.8934 38.5288 79.8898M38.4316 79.9331C38.4546 79.971 38.468 80.0147 38.4718 80.0584M38.5288 79.8898C38.5544 79.9358 38.5699 79.9863 38.5759 80.0364M38.4718 80.0584L38.5725 80.0259C38.5737 80.0294 38.5748 80.0329 38.5759 80.0364M38.4718 80.0584C39.8894 84.4547 41.3445 89.0836 42.8204 93.9283L38.5759 80.0364M38.4718 80.0584L38.5772 80.0492C38.5769 80.0449 38.5764 80.0407 38.5759 80.0364M21.0051 32.6913C21.1123 32.9529 28.4986 51.0263 37.6004 79.1294L21.0051 32.6913ZM43.1818 94.6691L43.2746 94.7199C43.2545 94.7567 43.2293 94.7878 43.201 94.8139C44.4325 98.8747 45.6791 103.084 46.9238 107.418C46.9323 107.44 46.939 107.463 46.9438 107.487C48.3072 112.234 49.6688 117.134 51.0175 122.167C51.9862 120.608 53.1707 117.73 54.4126 114.248C55.7084 110.613 57.0628 106.332 58.295 102.229C60.7595 94.0231 62.7344 86.5367 62.7746 86.3835L62.7747 86.3827C62.8282 86.1844 63.0332 86.0633 63.2353 86.116L63.2357 86.1161C63.4341 86.1685 63.5583 86.3713 63.5047 86.5739L43.1818 94.6691ZM37.5089 79.1904C34.5792 76.6756 24.75 67.4526 18.0058 61.0599L37.5089 79.1904Z" fill="#C1B9AE" stroke="#C1B9AE" stroke-width="0.211567"/>
<path d="M35.1593 270.756L45.6933 324.628H84.1209L93.8476 270.756H35.1593Z" fill="#FFFEFC" stroke="#C1B9AE" stroke-width="0.705224"/>
<path d="M97.8949 262.833H32.69C31.823 262.833 31.1192 263.535 31.1192 264.386V273.951C31.1192 274.802 31.823 275.504 32.69 275.504H97.8949C98.7619 275.504 99.4657 274.802 99.4657 273.951V264.386C99.4657 263.535 98.7602 262.833 97.8949 262.833Z" fill="#E4DBCB" stroke="#C1B9AE" stroke-width="0.705224"/>
</g>
<defs>
<clipPath id="clip0">
<rect width="511.038" height="334.904" fill="white" transform="translate(17.3652)"/>
</clipPath>
<clipPath id="clip1">
<rect width="158.769" height="315.058" fill="white" transform="matrix(-1 0 0 1 158.77 7.44238)"/>
</clipPath>
</defs>
</svg>
