<svg width="17" height="17" viewBox="0 0 17 17" fill="none" xmlns="http://www.w3.org/2000/svg">
<path d="M15.6579 11.1932C14.6092 11.1932 13.5821 11.0294 12.6086 10.7082C12.1335 10.5445 11.594 10.6706 11.2817 10.9892L9.3518 12.4467C7.13732 11.2648 5.72006 9.84838 4.55423 7.65001L5.97237 5.76569C6.32937 5.40869 6.45733 4.88615 6.30434 4.39674C5.98043 3.417 5.81581 2.38895 5.81581 1.34211C5.81581 0.602144 5.21366 0 4.4737 0H1.34211C0.602144 0 0 0.602144 0 1.34211C0 9.97542 7.02458 17 15.6579 17C16.3979 17 17 16.3979 17 15.6579V12.5353C17 11.7953 16.3979 11.1932 15.6579 11.1932Z" fill="#616370"/>
</svg>
