<svg width="30" height="30" viewBox="0 0 30 30" fill="none" xmlns="http://www.w3.org/2000/svg">
<path fill-rule="evenodd" clip-rule="evenodd" d="M18.3512 19.3513C18.8199 18.8826 19.5797 18.8826 20.0483 19.3513L23.6483 22.9513C24.117 23.4199 24.117 24.1797 23.6483 24.6484C23.1797 25.117 22.4199 25.117 21.9513 24.6484L18.3512 21.0483C17.8826 20.5797 17.8826 19.8199 18.3512 19.3513Z" fill="#616370"/>
<path fill-rule="evenodd" clip-rule="evenodd" d="M21.6001 14.8001C21.6001 19.1079 18.1079 22.6001 13.8001 22.6001C9.49221 22.6001 6 19.1079 6 14.8001C6 10.4922 9.49221 7 13.8001 7C18.1079 7 21.6001 10.4922 21.6001 14.8001ZM13.8001 20.2001C16.7824 20.2001 19.2001 17.7824 19.2001 14.8001C19.2001 11.8177 16.7824 9.40002 13.8001 9.40002C10.8177 9.40002 8.40002 11.8177 8.40002 14.8001C8.40002 17.7824 10.8177 20.2001 13.8001 20.2001Z" fill="#616370"/>
</svg>
