<?xml version="1.0" encoding="utf-8"?>
<!-- Generator: Adobe Illustrator 24.0.2, SVG Export Plug-In . SVG Version: 6.00 Build 0)  -->
<svg version="1.1" id="Layer_1" xmlns="http://www.w3.org/2000/svg" xmlns:xlink="http://www.w3.org/1999/xlink" x="0px" y="0px"
	 viewBox="0 0 30 30" style="enable-background:new 0 0 30 30;" xml:space="preserve">
<style type="text/css">
	.st0{fill-rule:evenodd;clip-rule:evenodd;fill:#FFFFFF;}
</style>
<path class="st0" d="M23.6,23l-3.6-3.6c0.9-1.3,1.5-2.9,1.5-4.6c0-4.3-3.5-7.8-7.8-7.8C9.5,7,6,10.5,6,14.8c0,4.3,3.5,7.8,7.8,7.8
	c1.7,0,3.3-0.6,4.6-1.5l3.6,3.6c0.5,0.5,1.2,0.5,1.7,0C24.1,24.2,24.1,23.4,23.6,23z M13.8,20.2c-3,0-5.4-2.4-5.4-5.4
	c0-3,2.4-5.4,5.4-5.4c3,0,5.4,2.4,5.4,5.4C19.2,17.8,16.8,20.2,13.8,20.2z"/>
</svg>
