<svg width="30" height="29" viewBox="0 0 30 29" fill="none" xmlns="http://www.w3.org/2000/svg">
<circle cx="15.02" cy="14.5" r="14.5" fill="#0088CC"/>
<g clip-path="url(#clip0)">
<path d="M18.7153 23.3807C18.5612 23.3807 18.4082 23.3378 18.277 23.2541L13.3186 20.0885L10.6592 21.8895C10.4506 22.0307 10.1818 22.0662 9.93959 21.9847C9.69771 21.9031 9.51401 21.7145 9.44844 21.4807L8.11312 16.7179L3.34187 15.0008C3.0415 14.8926 2.84229 14.6222 2.84011 14.3195C2.83792 14.0168 3.03317 13.7438 3.33208 13.6318L21.4742 6.83763C21.5565 6.80471 21.6436 6.78571 21.7314 6.78062C21.7629 6.77885 21.7944 6.77885 21.8257 6.78052C22.0077 6.79071 22.1864 6.86045 22.3258 6.98916C22.3403 7.00249 22.354 7.0161 22.367 7.03031C22.4826 7.15451 22.5461 7.30595 22.558 7.46023C22.5609 7.49903 22.5607 7.53831 22.5571 7.57759C22.5546 7.6056 22.5503 7.63352 22.5443 7.66124L19.482 22.7836C19.4328 23.0265 19.2571 23.2299 19.0144 23.3246C18.9181 23.3622 18.8164 23.3807 18.7153 23.3807ZM13.754 18.591L18.1707 21.4106L20.5535 9.64377L11.9476 17.4377L13.7331 18.5777C13.7403 18.582 13.7472 18.5865 13.754 18.591ZM10.0772 17.9639L10.6686 20.0729L11.9427 19.21L10.2743 18.1449C10.1968 18.0955 10.1304 18.034 10.0772 17.9639ZM5.76845 14.3008L9.04462 15.4797C9.27932 15.5641 9.45646 15.7499 9.52057 15.9785L9.93605 17.4605C9.9551 17.2895 10.0374 17.1287 10.1712 17.0075L18.3714 9.58108L5.76845 14.3008Z" fill="#D3D3D3"/>
</g>
<defs>
<clipPath id="clip0">
<rect width="19.72" height="18.56" fill="white" transform="translate(2.84009 5.79999)"/>
</clipPath>
</defs>
</svg>
