<svg width="29" height="29" viewBox="0 0 29 29" fill="none" xmlns="http://www.w3.org/2000/svg">
<circle cx="14.5" cy="14.5" r="14.5" fill="#6F28E3"/>
<g clip-path="url(#clip0)">
<path d="M23.8786 6.07555C22.0447 4.27763 19.0798 3.40647 15.0648 3.48497C11.0164 3.56459 8.3102 4.27518 6.54836 5.72128C4.84489 7.11934 4.05151 9.16513 4.05151 12.1594V15.2154C4.05151 18.7503 5.94572 22.6365 9.56598 23.2246C9.98393 23.2929 10.3777 23.0088 10.4455 22.5907C10.5134 22.1729 10.2296 21.7791 9.8117 21.7112C7.06617 21.2653 5.5847 18.0316 5.5847 15.2154V12.1594C5.5847 7.8659 7.17564 5.17352 15.0949 5.01775C18.6851 4.94661 21.2764 5.6714 22.8051 7.17024C23.9964 8.33843 24.5755 9.97036 24.5755 12.1594V15.2154C24.5755 19.843 22.4984 21.884 17.1711 22.4851H13.3935C13.1902 22.4851 12.9952 22.5658 12.8515 22.7096L10.1898 25.3713C9.89041 25.6707 9.89041 26.1561 10.1898 26.4555C10.3394 26.6051 10.5357 26.6801 10.7318 26.6801C10.928 26.6801 11.1242 26.6052 11.2739 26.4555L13.7111 24.0182H17.2139C17.2421 24.0182 17.2705 24.0167 17.2986 24.0135C20.3474 23.6749 22.4352 22.8814 23.8687 21.5163C25.376 20.0808 26.1088 18.0198 26.1088 15.2153V12.1594C26.1088 9.57357 25.3584 7.52666 23.8786 6.07555Z" fill="#D3D3D3"/>
<path d="M15.5587 8.48728C15.5588 8.48728 15.5588 8.48728 15.559 8.48728C16.7942 8.48728 17.9556 8.96839 18.8291 9.8419C19.7027 10.7155 20.1838 11.8771 20.1837 13.1125C20.1837 13.5359 20.5268 13.8791 20.9502 13.8791C20.9503 13.8791 20.9503 13.8791 20.9503 13.8791C21.3737 13.8791 21.7169 13.536 21.7169 13.1126C21.717 11.4676 21.0764 9.92101 19.9132 8.75784C18.7502 7.59466 17.2039 6.95419 15.559 6.95419C15.5589 6.95419 15.5586 6.95419 15.5585 6.95419C15.1351 6.95419 14.792 7.29742 14.792 7.72079C14.7921 8.14405 15.1353 8.48728 15.5587 8.48728Z" fill="#D3D3D3"/>
<path d="M15.5585 11.183C16.6223 11.1832 17.488 12.0488 17.4881 13.1125C17.4882 13.5358 17.8313 13.8791 18.2547 13.879C18.6782 13.879 19.0213 13.5356 19.0212 13.1123C19.0209 11.2034 17.4677 9.65013 15.5587 9.64983H15.5586C15.1352 9.64983 14.7921 9.99295 14.792 10.4163C14.792 10.8397 15.1351 11.183 15.5585 11.183Z" fill="#D3D3D3"/>
<path d="M12.1211 12.4966C11.7717 12.7356 11.682 13.2126 11.9209 13.5621C12.1598 13.9115 12.6369 14.0011 12.9864 13.7622C13.2612 13.5743 13.9049 13.1342 13.8598 12.2544C13.8311 11.7278 13.3562 10.9759 12.9627 10.4378C12.3873 9.65059 11.8914 9.17643 11.4918 9.02945C11.1187 8.89054 10.7286 8.88757 10.3314 9.02086C9.50868 9.29806 8.91135 9.799 8.6041 10.4695C8.30492 11.1222 8.31157 11.8724 8.62342 12.6393C9.35996 14.4462 10.3911 16.0281 11.695 17.3479C13.0079 18.6449 14.5898 19.676 16.3974 20.413C16.7886 20.5721 17.1755 20.6517 17.5475 20.6517C17.9042 20.6517 18.2471 20.5785 18.5667 20.4321C19.2372 20.1247 19.738 19.5275 20.0155 18.7038C20.1484 18.3075 20.1454 17.9175 20.0076 17.547C19.8596 17.1446 19.3854 16.6488 18.5982 16.0733C18.0601 15.6799 17.3082 15.2049 16.7796 15.1762C15.9016 15.132 15.4618 15.7747 15.274 16.0495C15.035 16.399 15.1244 16.876 15.4739 17.1151C15.8235 17.3541 16.3004 17.2646 16.5395 16.9151C16.6229 16.7932 16.6705 16.7378 16.6978 16.7136C17.1281 16.8515 18.3552 17.753 18.5761 18.0985C18.5815 18.1205 18.5827 18.1542 18.5623 18.2154C18.4656 18.5025 18.277 18.8783 17.9279 19.0384C17.6009 19.188 17.2294 19.0963 16.9757 18.9931C15.356 18.3327 13.9418 17.4123 12.7791 16.2637C11.624 15.0945 10.7035 13.6804 10.0436 12.0613C9.94012 11.807 9.84823 11.4352 9.99797 11.1086C10.1579 10.7595 10.5339 10.5708 10.8201 10.4743C10.8812 10.4539 10.9148 10.455 10.9381 10.4606C11.2837 10.6819 12.1847 11.9083 12.3227 12.3387C12.2984 12.3656 12.2431 12.4133 12.1211 12.4966Z" fill="#D3D3D3"/>
</g>
<defs>
<clipPath id="clip0">
<rect width="23.2" height="23.2" fill="white" transform="translate(3.47998 3.48001)"/>
</clipPath>
</defs>
</svg>
