<svg width="23" height="24" viewBox="0 0 23 24" fill="none" xmlns="http://www.w3.org/2000/svg">
<path fill-rule="evenodd" clip-rule="evenodd" d="M1.07912 0.506286C0.806455 0.462628 0.550021 0.648278 0.506363 0.920947C0.462704 1.19362 0.648354 1.45005 0.921023 1.49371L3.60435 1.92335L6.56558 17.0958C6.61141 17.3306 6.81711 17.5 7.05632 17.5H20.0001C20.2762 17.5 20.5001 17.2761 20.5001 17C20.5001 16.7239 20.2762 16.5 20.0001 16.5H7.46817L6.68748 12.5H19.8075C20.0175 12.5 20.2051 12.3688 20.2772 12.1716L22.4696 6.17161C22.5257 6.01828 22.5033 5.84725 22.4098 5.71347C22.3162 5.57969 22.1632 5.5 22 5.5H5.32128L4.51894 1.38907C4.47876 1.1832 4.31436 1.0243 4.10725 0.991135L1.07912 0.506286ZM5.51645 6.5L6.49231 11.5H19.4579L21.285 6.5H5.51645ZM8 19.5C7.17157 19.5 6.5 20.1716 6.5 21C6.5 21.8284 7.17157 22.5 8 22.5C8.82843 22.5 9.5 21.8284 9.5 21C9.5 20.1716 8.82843 19.5 8 19.5ZM5.5 21C5.5 19.6193 6.61929 18.5 8 18.5C9.38071 18.5 10.5 19.6193 10.5 21C10.5 22.3807 9.38071 23.5 8 23.5C6.61929 23.5 5.5 22.3807 5.5 21ZM16.5 21C16.5 20.1716 17.1716 19.5 18 19.5C18.8284 19.5 19.5 20.1716 19.5 21C19.5 21.8284 18.8284 22.5 18 22.5C17.1716 22.5 16.5 21.8284 16.5 21ZM18 18.5C16.6193 18.5 15.5 19.6193 15.5 21C15.5 22.3807 16.6193 23.5 18 23.5C19.3807 23.5 20.5 22.3807 20.5 21C20.5 19.6193 19.3807 18.5 18 18.5Z" fill="#616370"/>
</svg>
