<svg width="13" height="13" viewBox="0 0 13 13" fill="none" xmlns="http://www.w3.org/2000/svg">
<g opacity="0.7">
<path fill-rule="evenodd" clip-rule="evenodd" d="M12.5055 0.585045C12.7001 0.779697 12.7001 1.09529 12.5055 1.28994L1.53985 12.2556C1.3452 12.4502 1.02961 12.4502 0.834954 12.2556C0.640302 12.0609 0.640302 11.7453 0.834954 11.5507L11.8006 0.585045C11.9952 0.390393 12.3108 0.390393 12.5055 0.585045Z" fill="#323232" fill-opacity="0.7"/>
<path fill-rule="evenodd" clip-rule="evenodd" d="M0.834953 0.585039C1.02961 0.390388 1.3452 0.390388 1.53985 0.585039L12.5055 11.5507C12.7001 11.7453 12.7001 12.0609 12.5055 12.2556C12.3108 12.4502 11.9952 12.4502 11.8006 12.2556L0.834953 1.28994C0.640301 1.09528 0.640301 0.779691 0.834953 0.585039Z" fill="#323232" fill-opacity="0.7"/>
</g>
</svg>
