<svg width="23" height="23" viewBox="0 0 23 23" fill="none" xmlns="http://www.w3.org/2000/svg">
<g clip-path="url(#clip0)">
<path d="M11.5 13.4766C14.1008 13.4766 16.2168 11.3606 16.2168 8.75977C16.2168 6.15892 14.1008 4.04297 11.5 4.04297C8.89916 4.04297 6.7832 6.15892 6.7832 8.75977C6.7832 11.3606 8.89916 13.4766 11.5 13.4766ZM11.5 5.39062C13.3577 5.39062 14.8691 6.90202 14.8691 8.75977C14.8691 10.6175 13.3577 12.1289 11.5 12.1289C9.64226 12.1289 8.13086 10.6175 8.13086 8.75977C8.13086 6.90202 9.64226 5.39062 11.5 5.39062Z" fill="#E4DBCB"/>
<path d="M10.9463 22.7102C11.0723 22.8917 11.2791 23 11.5 23C11.7209 23 11.9277 22.8917 12.0537 22.7102C13.6645 20.3877 15.0662 18.5952 16.1925 17.1549C18.8151 13.8009 20.2598 11.9535 20.2598 8.75977C20.2598 3.92963 16.3301 0 11.5 0C6.66987 0 2.74023 3.92963 2.74023 8.75977C2.74023 11.9568 4.17499 13.7903 6.7797 17.1189C7.91088 18.5644 9.31864 20.3635 10.9463 22.7102ZM11.5 1.34766C15.587 1.34766 18.9121 4.67273 18.9121 8.75977C18.9121 11.4891 17.6485 13.1051 15.1309 16.3247C14.1246 17.6117 12.9004 19.1771 11.5 21.1525C10.0844 19.1552 8.85307 17.5817 7.84102 16.2883C5.34215 13.095 4.08789 11.4921 4.08789 8.75977C4.08789 4.67273 7.41296 1.34766 11.5 1.34766Z" fill="#E4DBCB"/>
</g>
<defs>
<clipPath id="clip0">
<rect width="23" height="23" fill="white"/>
</clipPath>
</defs>
</svg>
