<svg width="30" height="30" viewBox="0 0 30 30" fill="none" xmlns="http://www.w3.org/2000/svg">
<path fill-rule="evenodd" clip-rule="evenodd" d="M4.36972 3.01602C3.72779 2.90912 3.12164 3.34837 3.01586 3.99712C2.91007 4.64587 3.34472 5.25845 3.98665 5.36535L6.30331 5.75115L9.27898 21.6087C9.38443 22.1706 9.8704 22.5774 10.4364 22.5774H23.8117C24.4623 22.5774 24.9897 22.0444 24.9897 21.3869C24.9897 20.7294 24.4623 20.1964 23.8117 20.1964H11.412L10.8658 17.2858H24.0659C24.5622 17.2858 25.0053 16.9714 25.1739 16.4996L27.5372 9.88572C27.6675 9.52089 27.6138 9.11475 27.3933 8.79729C27.1727 8.47983 26.813 8.29086 26.4292 8.29086H9.41348C9.33432 8.29086 9.25698 8.29875 9.1822 8.3138L8.46466 4.48997C8.37252 3.99896 7.98674 3.61838 7.49881 3.53712L4.36972 3.01602ZM9.62469 10.6719L10.4322 14.9749C10.5568 14.9295 10.6913 14.9048 10.8315 14.9048H23.2388L24.7513 10.6719H9.62469ZM25.121 26.0157C25.121 27.1115 24.2419 27.9998 23.1576 27.9998C22.0733 27.9998 21.1943 27.1115 21.1943 26.0157C21.1943 24.9198 22.0733 24.0315 23.1576 24.0315C24.2419 24.0315 25.121 24.9198 25.121 26.0157ZM11.3777 27.9998C12.462 27.9998 13.3411 27.1115 13.3411 26.0157C13.3411 24.9198 12.462 24.0315 11.3777 24.0315C10.2934 24.0315 9.41437 24.9198 9.41437 26.0157C9.41437 27.1115 10.2934 27.9998 11.3777 27.9998Z" fill="#616370"/>
</svg>
