<svg width="24" height="23" viewBox="0 0 24 23" fill="none" xmlns="http://www.w3.org/2000/svg">
<path d="M12.7031 11.221V7.45703C12.7031 7.08458 12.3886 6.7832 12 6.7832C11.6114 6.7832 11.2969 7.08458 11.2969 7.45703V11.5C11.2969 11.5877 11.3154 11.675 11.351 11.7573C11.3868 11.8402 11.4385 11.9149 11.5037 11.9773L14.3154 14.6718C14.59 14.935 15.035 14.935 15.3097 14.6718C15.5843 14.4086 15.5843 13.9821 15.3097 13.7189L12.7031 11.221ZM12 2.74023C6.98269 2.74023 2.85938 6.6505 2.85938 11.5C2.85938 16.3648 7.00359 20.2598 12 20.2598C17.0174 20.2598 21.1406 16.3495 21.1406 11.5C21.1406 6.69174 17.0603 2.74023 12 2.74023ZM17.9399 16.2396L17.4691 15.7884C17.1945 15.5252 16.7495 15.5252 16.4749 15.7884C16.2002 16.0516 16.2002 16.4781 16.4749 16.7413L16.9456 17.1924C15.7733 18.1294 14.3082 18.7385 12.7031 18.878V18.2383C12.7031 17.8658 12.3886 17.5645 12 17.5645C11.6114 17.5645 11.2969 17.8658 11.2969 18.2383V18.878C9.69173 18.7385 8.2267 18.1294 7.05436 17.1924L7.52512 16.7413C7.79977 16.4781 7.79977 16.0516 7.52512 15.7884C7.25048 15.5252 6.8055 15.5252 6.53086 15.7884L6.06009 16.2396C5.08228 15.1161 4.4468 13.7121 4.30125 12.1738H4.96875C5.35739 12.1738 5.67188 11.8724 5.67188 11.5C5.67188 11.1276 5.35739 10.8262 4.96875 10.8262H4.30125C4.4468 9.28791 5.08233 7.88392 6.06009 6.76043L6.53086 7.21158C6.8055 7.47478 7.25044 7.47478 7.52512 7.21158C7.79977 6.94838 7.79977 6.52194 7.52512 6.25874L7.05436 5.80759C8.2267 4.87056 9.69178 4.26156 11.2969 4.12203V4.76172C11.2969 5.13417 11.6114 5.43555 12 5.43555C12.3886 5.43555 12.7031 5.13417 12.7031 4.76172V4.12203C14.3083 4.26151 15.7733 4.87056 16.9456 5.80759L16.4749 6.25874C16.2002 6.52194 16.2002 6.94838 16.4749 7.21158C16.7495 7.47478 17.1945 7.47478 17.4691 7.21158L17.9399 6.76043C18.9177 7.88392 19.5532 9.28796 19.6987 10.8262H19.0312C18.6426 10.8262 18.3281 11.1276 18.3281 11.5C18.3281 11.8724 18.6426 12.1738 19.0312 12.1738H19.6987C19.5532 13.7121 18.9177 15.1161 17.9399 16.2396ZM12 0C5.40891 0 0 5.18354 0 11.5C0 17.8165 5.40891 23 12 23C18.5911 23 24 17.8165 24 11.5C24 5.18354 18.5911 0 12 0ZM12 21.6523C6.18412 21.6523 1.40625 17.0735 1.40625 11.5C1.40625 5.92645 6.18412 1.34766 12 1.34766C17.8159 1.34766 22.5938 5.92645 22.5938 11.5C22.5938 17.0735 17.8159 21.6523 12 21.6523Z" fill="#E4DBCB"/>
</svg>
