<svg width="30" height="29" viewBox="0 0 30 29" fill="none" xmlns="http://www.w3.org/2000/svg">
<circle cx="15.26" cy="14.5" r="14.5" fill="#579541"/>
<g clip-path="url(#clip0)">
<path d="M15.2598 3.48C9.30397 3.48 4.45874 8.32544 4.45874 14.2812C4.45874 16.6121 5.40483 18.705 5.81169 19.4967C6.00111 19.8655 6.45369 20.0106 6.82222 19.8212C7.19085 19.6318 7.33614 19.1793 7.14672 18.8107C6.7899 18.1162 5.95978 16.2844 5.95978 14.2811C5.95968 9.15306 10.1317 4.98094 15.2598 4.98094C20.3884 4.98094 24.5607 9.15306 24.5607 14.2812C24.5607 19.4095 20.3884 23.5816 15.2598 23.5816C13.2541 23.5816 11.6604 22.8872 11.0683 22.5885C10.8927 22.4998 10.6892 22.4838 10.5019 22.5437L5.77476 24.0544C5.38002 24.1806 5.16218 24.6028 5.28836 24.9977C5.39022 25.3166 5.68541 25.5199 6.00301 25.5199C6.07875 25.5199 6.1557 25.5084 6.23165 25.4841L10.6735 24.0646C11.6028 24.496 13.2384 25.0825 15.2598 25.0825C21.2159 25.0825 26.0617 20.2371 26.0617 14.2812C26.0617 8.32544 21.2159 3.48 15.2598 3.48Z" fill="#D3D3D3"/>
<path d="M13.1302 12.4392C12.8015 12.6917 12.7398 13.1628 12.9921 13.4916C13.2446 13.8203 13.7156 13.8821 14.0445 13.6297C14.2745 13.453 14.8856 12.9837 14.7961 12.1442C14.741 11.6452 14.2541 10.9605 13.8554 10.4741C13.2719 9.76226 12.778 9.34069 12.3901 9.22202C12.0267 9.10935 11.6543 9.12716 11.2828 9.27505C10.5188 9.58044 9.97953 10.0864 9.72337 10.7382C9.47391 11.373 9.51924 12.0833 9.85475 12.7932C10.6379 14.4464 11.6847 15.8742 12.966 17.0371C12.971 17.0418 12.9761 17.0464 12.9812 17.051C14.2807 18.1997 15.8182 19.0848 17.5516 19.682C17.8805 19.7949 18.2033 19.8513 18.5133 19.8513C18.9027 19.8513 19.272 19.7624 19.608 19.5853C20.2274 19.2587 20.6707 18.667 20.8902 17.8727C20.9958 17.4877 20.9722 17.1159 20.8212 16.7696C20.6592 16.3949 20.1858 15.9507 19.4139 15.4495C18.8867 15.1071 18.153 14.699 17.6488 14.699C17.6485 14.699 17.6481 14.699 17.6477 14.699C16.8066 14.7025 16.4073 15.3616 16.257 15.6098C16.0422 15.9643 16.1555 16.4258 16.51 16.6406C16.8643 16.8553 17.3259 16.7421 17.5408 16.3875C17.6001 16.2894 17.6377 16.2374 17.6613 16.2102C18.0852 16.3333 19.219 17.0749 19.4514 17.387C19.4552 17.4036 19.4557 17.4288 19.4432 17.4745C19.3692 17.7422 19.2162 18.0953 18.9079 18.2578C18.6198 18.4095 18.2763 18.3441 18.0397 18.2629C16.4974 17.7315 15.1326 16.9479 13.9828 15.9335C13.9825 15.9332 13.9821 15.9329 13.9818 15.9325C12.8434 14.9011 11.9112 13.6288 11.2113 12.1514C11.1041 11.9244 11.0012 11.5903 11.1202 11.2874C11.2477 10.963 11.5818 10.7721 11.839 10.6693C11.8831 10.6517 11.908 10.649 11.9262 10.6514C12.2622 10.848 13.1238 11.8924 13.293 12.3001C13.2686 12.3265 13.221 12.3695 13.1302 12.4392Z" fill="#D3D3D3"/>
</g>
<defs>
<clipPath id="clip0">
<rect width="22.04" height="22.04" fill="white" transform="translate(4.23999 3.48001)"/>
</clipPath>
</defs>
</svg>
