<svg width="10" height="12" viewBox="0 0 10 12" fill="none" xmlns="http://www.w3.org/2000/svg">
<path d="M1.44 12V10.288H0.16V8.736H1.44V7.488H0.16V5.504H1.44V0.575999H5.088C6.56 0.575999 7.632 0.874666 8.304 1.472C8.98667 2.06933 9.328 2.89067 9.328 3.936C9.328 4.55467 9.18933 5.136 8.912 5.68C8.63467 6.224 8.17067 6.66133 7.52 6.992C6.88 7.32267 6.00533 7.488 4.896 7.488H3.856V8.736H6.32V10.288H3.856V12H1.44ZM3.856 5.504H4.656C5.33867 5.504 5.87733 5.38667 6.272 5.152C6.67733 4.91733 6.88 4.53867 6.88 4.016C6.88 3.04533 6.24 2.56 4.96 2.56H3.856V5.504Z" fill="#616370"/>
</svg>
