<svg width="7" height="9" viewBox="0 0 7 9" fill="none" xmlns="http://www.w3.org/2000/svg">
<path d="M1.164 9V7.368H0.12V6.588H1.164V5.52H0.12V4.608H1.164V0.431999H3.42C4.468 0.431999 5.244 0.644 5.748 1.068C6.26 1.492 6.516 2.108 6.516 2.916C6.516 3.732 6.24 4.372 5.688 4.836C5.136 5.292 4.324 5.52 3.252 5.52H2.244V6.588H4.224V7.368H2.244V9H1.164ZM2.244 4.608H3.096C3.824 4.608 4.388 4.488 4.788 4.248C5.196 4.008 5.4 3.576 5.4 2.952C5.4 2.408 5.232 2.004 4.896 1.74C4.56 1.476 4.036 1.344 3.324 1.344H2.244V4.608Z" fill="#323232"/>
</svg>
